/* XPM */
static char *_b7476462a244146fde2b218aee36ef1VYumbpH0B9qDI61B[] = {
/* columns rows colors chars-per-pixel */
"64 64 183 2 ",
"   c #040105",
".  c #0A0504",
"X  c #0C0807",
"o  c #060109",
"O  c #0A020A",
"+  c #0E0D0E",
"@  c #150C06",
"#  c #190E05",
"$  c #11060A",
"%  c #150B0A",
"&  c #1A0D0C",
"*  c #1B1109",
"=  c #0C0213",
"-  c #0E0B13",
";  c #0F001F",
":  c #110C14",
">  c #18051A",
",  c #140D1B",
"<  c #191519",
"1  c #19161F",
"2  c #20130C",
"3  c #261913",
"4  c #2A1E15",
"5  c #2F2417",
"6  c #2C231A",
"7  c #36271B",
"8  c #170020",
"9  c #1E0024",
"0  c #12002C",
"q  c #1F0028",
"w  c #1A1523",
"e  c #1F1C20",
"r  c #180037",
"t  c #220027",
"y  c #22002A",
"u  c #231E2A",
"i  c #200A38",
"p  c #2A1E3A",
"a  c #2D2921",
"s  c #352D23",
"d  c #3B2E22",
"f  c #3B3225",
"g  c #3C342B",
"h  c #412D1F",
"j  c #4F331C",
"k  c #55361D",
"l  c #5C3A1E",
"z  c #433324",
"x  c #48392B",
"c  c #40373A",
"v  c #613E21",
"b  c #714117",
"n  c #4D4034",
"m  c #534233",
"M  c #764820",
"N  c #7C4B22",
"B  c #170047",
"V  c #1A0240",
"C  c #1E0050",
"Z  c #20054B",
"A  c #380149",
"S  c #261340",
"D  c #3B0457",
"F  c #2C1A50",
"G  c #301C50",
"H  c #3B2C51",
"J  c #361B66",
"K  c #41005D",
"L  c #43394C",
"P  c #450566",
"I  c #46006E",
"U  c #4C006D",
"Y  c #470070",
"T  c #4A0072",
"R  c #4E067A",
"E  c #685747",
"W  c #765C46",
"Q  c #625D5C",
"!  c #765E50",
"~  c #76604F",
"^  c #796653",
"/  c #7C6753",
"(  c #5D5464",
")  c #5B5B72",
"_  c #676368",
"`  c #676675",
"'  c #804A1B",
"]  c #814F25",
"[  c #875325",
"{  c #8C5526",
"}  c #87552E",
"|  c #8A5529",
" . c #8D582B",
".. c #945C2C",
"X. c #855737",
"o. c #925E34",
"O. c #9D612E",
"+. c #946035",
"@. c #9A6434",
"#. c #A66833",
"$. c #A96E39",
"%. c #B1733C",
"&. c #80674C",
"*. c #856C57",
"=. c #8F725B",
"-. c #91765C",
";. c #B47A46",
":. c #937D63",
">. c #BE814A",
",. c #9D826C",
"<. c #A68E74",
"1. c #512684",
"2. c #6B2790",
"3. c #7630AD",
"4. c #7D2FB7",
"5. c #5F4A95",
"6. c #6D5390",
"7. c #75589A",
"8. c #717384",
"9. c #7C619F",
"0. c #767494",
"q. c #787595",
"w. c #7A63A5",
"e. c #7D68A9",
"r. c #813FB8",
"t. c #836BA9",
"y. c #876FB7",
"u. c #8B6EB4",
"i. c #8A72B5",
"p. c #8570B9",
"a. c #8A74BB",
"s. c #8F78BD",
"d. c #9077BF",
"f. c #8F51C3",
"g. c #9C69CA",
"h. c #8F7BCA",
"j. c #937CC2",
"k. c #9882BB",
"l. c #C5AA8B",
"z. c #E0CEB8",
"x. c #EFD8B7",
"c. c #9A88C7",
"v. c #9982CC",
"b. c #9C93D8",
"n. c #A598C8",
"m. c #A995D5",
"M. c #B09DD6",
"N. c #AAA0C8",
"B. c #B8B9C8",
"V. c #B6A5D3",
"C. c #B7A8D9",
"Z. c #BCABDC",
"A. c #BDB1DB",
"S. c #ACA2E7",
"D. c #B3A7E5",
"F. c #BEAAE2",
"G. c #BAAEE9",
"H. c #BFB6EA",
"J. c #B6ACF1",
"K. c #C6BCD3",
"L. c #C3AEE7",
"P. c #C6B1E5",
"I. c #DCD1C7",
"U. c #CCC4D9",
"Y. c #EBDDCB",
"T. c #FDE8C9",
"R. c #D6CCE6",
"E. c #DCCCE5",
"W. c #D5D4E5",
"Q. c #D5D2EC",
"!. c #DBD8E9",
"~. c #CFC8F1",
"^. c #CFD2F3",
"/. c #E2CBED",
"(. c #E3D3EF",
"). c #E2C9F2",
"_. c #E9D8F6",
"`. c #EDDDFA",
"'. c #E7E6E5",
"]. c #E4E3F2",
"[. c #E9E7F4",
"{. c #F3E2FC",
"}. c #FAFAFD",
/* pixels */
"v v v v v v v v v v v v v v v v v v v v v v v v v v v v v v v v v v v v v v v v v v v v v v v v v v v v v v v v v v v v v v v v ",
"v v v v v v v v v v v v v v v v v v v v v v v v v v v v v v v v v v v v v v v v v v v v v v v v v v v v v v v v v v v v v v v v ",
"%.%.%.%.%.%.%.%.%.%.%.%.%.%.%.%.%.%.%.>.>.>.>.>.>.>.>.>.v v v v v v v >.>.>.>.>.>.>.>.>.%.%.%.%.%.%.%.%.%.%.%.%.%.%.%.%.%.%.%.%.",
"%.%.%.%.%.%.%.%.%.%.%.%.%.%.%.%.%.%.%.%.%.%.%.%.%.%.%.%.%.v v v v v %.%.%.%.%.%.%.%.%.%.%.%.%.%.%.%.%.%.%.%.%.%.%.%.%.%.%.%.%.%.",
"O.O.O.O.O.O.O.O.O.O.O.O.O.O.O.O.O.O.O.O.O.O.O.O.O.O.O.O.O.O.v v v O.O.O.O.O.O.O.O.O.O.O.O.O.O.O.O.O.O.O.O.O.O.O.O.O.O.O.O.O.O.O.",
"O.O.O.O.O.O.O.O.O.O.#.#.#.#.#.#.#.#.#.O.O.O.O.O.O.O.O.O.O.O.O.v v O.O.O.O.O.O.O.O.O.O.O.O.O.O.O.O.O.#.#.#.#.#.#.#.O.O.O.O.O.O.O.",
"O.O.O.O.O.O.O.O.O.O.O.O.O.O.O.O.O.O.O.O.O.O.O.O.O.O.O.O.O.O.O.v v O.O.O.O.O.O.O.O.O.O.O.O.O.O.O.O.O.O.O.O.O.O.O.O.O.O.O.O.O.O.O.",
"{ { { { { { { { { { { { { { { { { { { { { { { { { { { { { { { v v { { { { { { { { { { { { { { { { { { { { { { { { { { { { { { { ",
"{ { { { { { { { { { { { { { { { { { { { { { { { { { { { { { { v v { { { { { { { { { { { { { { { { { { { { { { { { { { { { { { { ",
"O.O.O.O.O.O.O.O.O.O.O.O.O.O.O.O.O.O.O.O.O.O.O.O.O.O.O.O.O.O.O.v v v v v v O.O.O.O.O.O.O.O.O.O.O.O.O.O.O.O.O.O.O.O.O.O.O.O.O.O.O.",
"O.O.O.O.#.#.#.#.#.O.O.O.O.O.O.O.O.O.O.O.O.O.O.O.O.O.O.O.O.O.O.v v v v v v O.O.O.#.#.#.#.#.#.#.#.#.O.O.O.O.O.O.O.O.O.O.O.O.O.O.O.",
"O.O.O.O.O.O.O.O.O.O.O.O.O.O.#.#.#.#.#.#.#.#.#.#.#.O.O.O.O.v v v v { { O.O.O.O.O.O.O.O.O.O.O.O.O.O.O.O.O.O.O.#.#.#.#.#.#.O.O.O.O.",
"O.O.O.O.O.O.O.O.O.O.O.O.O.O.O.O.O.O.O.O.O.O.O.O.O.O.O.O.v v v v v { { O.O.O.O.O.O.O.O.O.O.O.O.O.O.O.O.O.O.O.O.O.O.O.O.O.O.O.O.O.",
"{ { { { { { { { { { { { { { { { { { { { { { { { { { { { { { { v v { { { { { { { { { { { { { { { { { { { { { { { { { { { { { { { ",
"{ { { { { { { { { { { { { { { { { { { { { { { { { { { { { { { v v v { { { { { { { { { { { { { { { { { { { { { { { { { { { { { { ",
"{ { { { { { { { { { { { { { { { { { { ' ' ' ' ' ' ' ' ' ' ' v v v v v v ' ' ' ' ' ' ' ' { { { { { { { { { { { { { { { { { { { { ",
"v v v v v v v v v v v v v v v v v v v v v v v v v v v v v v v v v v v v v v v v v v v v v v v v v v v v v v v v v v v v v v v v ",
"v v v v v v v v v v v v v v v v v v v v v v v v v v v v v v v v v v v v v v v v v v v v v v v v v v v v v v v v v v v v v v v v ",
"v >.>.>.>.>.>.>.>.%.%.%.%.%.%.%.%.%.%.%.%.%.%.%.%.%.%.%.$.$.$.$.$.$.$.$.%.%.%.%.%.%.%.%.%.%.%.%.%.%.%.%.%.>.>.>.>.>.>.>.>.>.v v ",
"v %.%.%.%.%.%.%.%.%.%.%.%.%.%.%.%.%.%.%.%.%.%.%.%.%.%.$.z f d f f s d s @.%.%.%.%.%.%.%.%.%.%.%.%.%.%.%.%.%.%.%.%.%.%.%.%.%.v v ",
"v O.O.O.O.O.O.O.O.O.O.O.O.O.O.O.O.O.O.O.O.O.O.O.O.O.O.4 z *.-.x.T.,.-.m < | O.O.O.O.O.O.O.O.O.O.O.O.O.O.O.O.O.O.O.O.O.O.O.v v v ",
"v O.O.O.O.O.O.O.O.O.O.O.O.O.#.#.#.#.#.O.O.O.O.O.O.O.O.7 z x / z.Y.^ n x 6  .O.O.O.O.O.O.O.#.#.#.#.#.#.#.#.#.O.O.O.O.O.O.v v v v ",
"v O.O.O.O.O.O.O.O.O.O.O.O.O.O.O.O.O.O.O.O.O.O.O.O.O.O...@     +         ] O.O.O.O.O.O.O.O.O.O.O.O.O.O.O.O.O.O.O.O.O.O.O.v v v v ",
"{ { { { { { { { { { { { { { { { { { { { { { { { { { { 4 d + c '.( L :     N { { { { { { { { { { { { { { { { { { { { { { { v v v ",
"{ { { { { { { { { { { { { { { { { { { { { { { { { { { 5 m *.=.Y.l./ ^ x X M [ { { { { { { { { { { { { { { { { { { { { { { { v v ",
"O.O.O.O.O.O.O.O.O.O.O.O.O.O.O.O.O.O.O.O.O.O.O.O.O.O.O.O.@ z ~ :.&.s 6   7 z z  .O.O.O.O.O.O.O.O.O.O.O.O.O.O.O.O.O.O.O.O.O.O.v v ",
"O.O.O.O.O.O.O.#.#.#.#.#.#.#.#.O.O.O.O.O.O.O.O.O.O.O.O.O.@ d ! I.<.W h . 7 ! *.f | O.O.O.O.O.O.O.O.O.O.O.O.O.O.O.O.O.O.O.O.O.v v ",
"{ { O.O.O.O.O.O.O.O.O.O.O.O.O.O.O.O.O.O.#.#.#.#.#.#.#.@.* + + + + + + X } * E *.a  .O.O.O.O.O.O.O.#.#.#.#.#.#.#.O.O.O.O.O.O.v v ",
"{ { O.O.O.O.O.O.O.O.O.O.O.O.O.O.O.O.O.O.O.O.O.O.O.O.O.Q ` Q.].}.[.].].q.) +.4 ^ a  .O.O.O.O.O.O.O.O.O.O.O.O.O.O.O.O.O.O.O.O.v v ",
"{ { { { { { { { { { { { { { { { { { { { { { { { { { | _ W.].}.].].].].].8.} 3 ^ a N { { { { { { { { { { { { { { { { { { { v v v ",
"v v { { { { { { { { { { { { { { { { { { { { { { { | ( R.].].}.[.].].].].q.X.6 ~ s N { { { { { { { { { { { { { { { { { { { v v v ",
"v v v ' ' ' ' ' ' ' ' { { { { { { { { { { { { { { ( ` W.].!.}.!.W.W.].].].0.g g 6 ] { { { { { { { { { { { ' ' ' ' ' ' ' ' ' v v ",
"v v v v v v v v v v v v v v v v v v v v v v v v l _ U.W.W.r.).J C Z K.W.W.!.e   k v v v v v v v v v v v v v v v v v v v v v v v ",
"v v v v v v v v v v v v v v v v v v v v v v v v X B.F V r E.g.i 0 0 0 B B 1.= j v v v v v v v v v v v v v v v v v v v v v v v v ",
"%.%.%.%.%.%.%.%.%.%.%.%.%.%.%.%.%.%.%.%.%.%.%.;.& o K U T /.2.T I I I T U r 0 ; o.%.%.%.%.%.%.%.%.%.%.%.%.%.%.%.%.%.%.%.%.%.%.%.",
"%.%.%.%.%.%.%.%.%.%.%.%.%.%.%.%.%.%.%.%.%.%.%.@ D U U U 3.).f.R I I Y T T T T T = @.%.%.%.%.%.%.%.%.%.%.%.%.%.%.%.%.%.%.%.%.%.%.",
"O.O.O.O.O.O.O.O.O.O.O.O.O.O.O.O.O.O.O.O.O.O...% q P U T 3.4.R Y T T T T T T = 9   ] O.O.O.O.O.O.O.O.O.O.O.O.O.O.O.O.O.O.O.O.O.O.",
"O.O.O.O.O.O.O.O.O.O.O.#.#.#.#.#.O.O.O.O.O.O.@ 9 y O K U U U I I I I T I T =   9 y o ..#.#.#.O.O.O.O.O.O.O.O.O.O.O.O.#.#.#.#.#.O.",
"O.O.O.O.O.O.O.O.O.O.O.O.O.O.O.O.O.O.O.O.O...% 9 o     A D P , % + + O           9 o ] O.O.O.O.O.O.O.O.O.O.O.O.O.O.O.O.O.O.O.O.O.",
"{ { { { { { { { { { { { { { { { { { { { { @ 9 y O     o : b.`.{.Z.M.i.w         9 t O N { { { { { { { { { { { { { { { { { { { { ",
"{ { { { { { { { { { { { { { { { { { { { { % 9 O       : E.{.G.s.i.y.F.P.u o     o 9 O N { { { { { { { { { { { { { { { { { { { { ",
"O.O.O.O.O.O.O.O.O.O.O.O.O.O.O.O.O.O.O.O.O.& 9 O     o c.`.G.D.s.i.i.a.F.i.,       9 O | O.O.O.O.O.O.O.O.O.O.O.O.O.O.O.O.O.O.O.O.",
"O.O.O.O.O.O.O.O.O.O.O.O.O.O.O.O.O.O.O.O.O.& 9 O     o c.`.k.i.i.i.a.a.Z.i.,   o O 9 O ..#.#.#.O.O.O.O.O.O.O.O.O.O.O.O.O.O.O.O.O.",
"O.O.O.O.#.#.#.#.O.O.O.O.O.O.O.O.O.O.O.O.O.2 9 t O   - n.(.`.{.j.y.C.Z.V.i.w     9 y $ | O.O.O.O.O.O.O.O.O.O.O.#.#.#.O.O.O.O.O.O.",
"O.O.O.O.O.O.O.O.O.O.O.O.O.O.O.O.O.O.O.O.O.O.& 9 o   7.~.p 5.E.c.s.V.t.: 9.u.,   9 O | O.O.O.O.O.O.O.O.O.O.O.O.O.O.O.O.O.O.O.O.O.",
"{ { { { { { { { { { { { { { { { { { { { { { % 9 O   7.Q.G V Z E.{.e     t.u.,   9 O N { { { { { { { { { { { { { { { { { { { { { ",
"{ { { { { { { { { { { { { { { { { { { { { { % 9 y O 6._.H S S W.H.u - - N.t., 9 t O N { { { { { { { { { { { { { { { { { { { { { ",
"{ { { { { { { { { { { { { { { { { { { ' ' ' # 9 y O   U.{.{.{.p.- n.A.Z.A.1   9 y X b ' { { { { { { { { { { { { { { { { { { { { ",
"v v v v v v v v v v v v v v v v v v v v v v v X 9 o   6.w.y.a.w O w.u.t.e.,   9 O k v v v v v v v v v v v v v v v v v v v v v v ",
"v v v v v v v v v v v v v v v v v v v v v v v $ 9 O       w.s.s.a.d.a.,     o 9 O k v v v v v v v v v v v v v v v v v v v v v v ",
"v v >.>.>.>.>.>.>.%.%.%.%.%.%.%.%.%.%.%.%.%.%.& 9 y O     e._.{.d.H.v.,     9 y O @.%.%.%.%.%.%.%.%.%.%.>.>.>.>.>.>.>.>.>.>.v v ",
"v %.%.%.%.%.%.%.%.%.%.%.%.%.%.%.%.%.%.%.%.%.%.2 9 y O     i._.J.a.j.a.,     9 y $ @.%.%.%.%.%.%.%.%.%.%.%.%.%.%.%.%.%.%.%.%.v v ",
"O.O.O.O.O.O.O.O.O.O.O.O.O.O.O.O.O.O.O.O.O.O.O.O.@ 9 O     k.^.S.h.v.v.,   o 9   | O.O.O.O.O.O.O.O.O.O.O.O.O.O.O.O.O.O.O.O.O.v v ",
"O.O.O.O.O.O.O.O.#.#.#.#.#.#.#.#.#.#.#.#.#.#.O.O.* 9 9 o     K.L.m.M.1     9 y X | O.O.O.O.O.O.O.O.O.#.#.#.#.O.O.O.O.O.O.O.O.v v ",
"O.O.O.O.O.O.O.O.O.O.O.O.O.O.O.O.O.O.O.O.O.O.O.O.O.3 A y y O             9 q $ | O.O.O.O.O.O.O.O.O.O.O.O.O.O.O.O.O.O.O.O.O.v v v ",
"{ { { { { { { { { { { { { { { { { { { { { { { { { { * $ q D 9 > > 8 9 9 X X N { { { { { { { { { { { { { { { { { { { { { { v v v ",
"{ { { { { { { { { { { { { { { { { { { { { { { { { { { { # . . . . . . X N { { { { { { { { { { { { { { { { { { { { { { { v v v v ",
"O.O.O.O.O.O.O.O.O.O.O.O.O.O.O.O.O.O.O.O.O.O.O.O.O.O.O.O.O.O.O.O.O.O.O.O.O.O.O.O.O.O.O.O.O.O.O.O.O.O.O.O.O.O.O.O.O.O.O.O.v v v v ",
"O.O.O.O.O.O.O.O.O.#.#.#.O.O.O.O.O.O.O.O.O.O.O.O.O.O.O.O.O.O.O.O.O.O.O.O.O.O.O.O.O.O.O.#.#.#.O.O.O.O.O.O.O.O.O.O.O.O.O.O.O.v v v ",
"{ { O.O.O.O.O.O.O.O.O.O.O.O.O.O.O.O.O.O.#.#.#.#.#.#.#.#.#.#.#.O.O.O.O.O.O.O.O.O.O.O.O.O.O.O.O.O.O.O.O.#.#.#.#.#.#.O.O.O.O.v v v ",
"{ { O.O.O.O.O.O.O.O.O.O.O.O.O.O.O.O.O.O.O.O.O.O.O.O.O.O.O.O.O.O.O.O.O.O.O.O.O.O.O.O.O.O.O.O.O.O.O.O.O.O.O.O.O.O.O.O.O.O.O.O.v v ",
"v v { { { { { { { { { { { { { { { { { { { { { { { { { { { { { { { { { { { { { { { { { { { { { { { { { { { { { { { { { { { { v v ",
"{ v v v { { { { { { { { { { { { { { { { { { { { { { { { { { { { { { { { { { { { { { { { { { { { { { { { { { { { { { { { { { v v ",
"' ' ' ' ' ' ' ' ' { { { { { { { { { { { { { { { { { { { { { { { { { { { { { { { { { { { { { { { { { { { ' ' ' ' ' ' ' ' ' ' v v "
};
