/* XPM */
static char *result[] = {
/* columns rows colors chars-per-pixel */
"64 64 221 2 ",
"   c #030000",
".  c #0B0401",
"X  c #140200",
"o  c #1D0501",
"O  c #130A03",
"+  c #1C0901",
"@  c #1A1512",
"#  c #240C02",
"$  c #2A0C02",
"%  c #320E01",
"&  c #29160A",
"*  c #351102",
"=  c #3A1504",
"-  c #3E1B03",
";  c #371509",
":  c #3C190C",
">  c #372308",
",  c #3F2311",
"<  c #242729",
"1  c #431B0A",
"2  c #461C09",
"3  c #571B06",
"4  c #411F11",
"5  c #661A00",
"6  c #701E00",
"7  c #432102",
"8  c #482503",
"9  c #4D2A06",
"0  c #44230D",
"q  c #4B240C",
"w  c #4C2B0A",
"e  c #54290A",
"r  c #522C0B",
"t  c #4B340B",
"y  c #56310D",
"u  c #593608",
"i  c #5A340E",
"p  c #452412",
"a  c #492616",
"s  c #4B2A16",
"d  c #4E2B18",
"f  c #532610",
"g  c #512C11",
"h  c #5A2C13",
"j  c #512E1B",
"k  c #4D3517",
"l  c #553617",
"z  c #5D3612",
"x  c #54331E",
"c  c #5D3B1A",
"v  c #6A2104",
"b  c #722800",
"n  c #772805",
"m  c #6B3909",
"M  c #6C2E12",
"N  c #603115",
"B  c #623A14",
"V  c #61361A",
"C  c #6B3418",
"Z  c #633E1C",
"A  c #6B3A1A",
"S  c #773A19",
"D  c #5A3B25",
"F  c #613E21",
"G  c #5F401E",
"H  c #6B4408",
"J  c #754C0C",
"K  c #7C520D",
"L  c #64431C",
"P  c #69431F",
"I  c #784A17",
"U  c #74431E",
"Y  c #7B5515",
"T  c #5F4924",
"R  c #4E453B",
"E  c #544537",
"W  c #594E36",
"Q  c #654724",
"!  c #6B4623",
"~  c #6C4C2A",
"^  c #7A4523",
"/  c #7D4921",
"(  c #734E2E",
")  c #67512A",
"_  c #75592C",
"`  c #7C5B2B",
"'  c #654D36",
"]  c #744F31",
"[  c #6A533B",
"{  c #745232",
"}  c #755A32",
"|  c #74573F",
" . c #785738",
".. c #76583D",
"X. c #6D6A3A",
"o. c #7B6237",
"O. c #7D6236",
"+. c #4F4E4D",
"@. c #655547",
"#. c #6A5746",
"$. c #745D4B",
"%. c #76664A",
"&. c #7B7546",
"*. c #4C5963",
"=. c #56646F",
"-. c #5C6B77",
";. c DimGray",
":. c #61707C",
">. c #832800",
",. c #8A2C00",
"<. c #883402",
"1. c #933800",
"2. c #9C3A00",
"3. c #9A4A00",
"4. c #83590F",
"5. c #834319",
"6. c #804A1B",
"7. c #855B13",
"8. c #88581A",
"9. c #A94500",
"0. c #AE4800",
"q. c #AA5000",
"w. c #B35500",
"e. c #B95A00",
"r. c #8B631A",
"t. c #926718",
"y. c #986C1C",
"u. c #BE6600",
"i. c #824D23",
"p. c #865727",
"a. c #8C5526",
"s. c #925927",
"d. c #985D2B",
"f. c #855E37",
"g. c #935E32",
"h. c #8C6826",
"j. c #986C22",
"k. c #96612E",
"l. c #9D612E",
"z. c #9E7222",
"x. c #96722B",
"c. c #846230",
"v. c #886737",
"b. c #856B3B",
"n. c #986934",
"m. c #997A3A",
"M. c #A1682F",
"N. c #A4782C",
"B. c #A57A2D",
"V. c #A66833",
"C. c #A76E3B",
"Z. c #AA7F32",
"A. c #B1733C",
"S. c #C16E00",
"D. c #C47301",
"F. c #8B6E42",
"G. c #836548",
"H. c #936E41",
"J. c #897748",
"K. c #927746",
"L. c #A27240",
"P. c #AA833A",
"I. c #B1883D",
"U. c #8C8956",
"Y. c #8E8A59",
"T. c #938D5B",
"R. c #A98740",
"E. c #AA8A45",
"W. c #B58D44",
"Q. c #B88F47",
"!. c #BE814A",
"~. c #BA934B",
"^. c #A48D50",
"/. c #A98B52",
"(. c #AF8E5E",
"). c #AA9454",
"_. c #AE955E",
"`. c #B69B59",
"'. c #978861",
"]. c #9A9564",
"[. c #B4996A",
"{. c #BCA161",
"}. c #A5A170",
"|. c #A9A572",
" X c #AFAB78",
".X c #B0AD77",
"XX c #B2AE7A",
"oX c #B5B27D",
"OX c #C09A54",
"+X c #C39E59",
"@X c #C8A360",
"#X c #C3A769",
"$X c #CEB173",
"%X c #CDB57C",
"&X c #7C878E",
"*X c #728391",
"=X c #768896",
"-X c #7B8B97",
";X c #81898F",
":X c #9E9782",
">X c #848B90",
",X c #AEAB8A",
"<X c #B8B482",
"1X c #BDB987",
"2X c #8597A5",
"3X c #879AA8",
"4X c #8C9EAB",
"5X c #90A2B1",
"6X c #BCBBA6",
"7X c #D7BD83",
"8X c #DAC187",
"9X c #D2CE9B",
"0X c #DEDAA5",
"qX c #CDCAB7",
"wX c #E1DEAE",
"eX c #A3B5C3",
"rX c #A8BBCA",
"tX c #B1C4D3",
"yX c #EAE8C6",
"uX c #F1EFD9",
"iX c #F6F5EF",
/* pixels */
"F F F F F F F F F F F F F F F F F F F F F F F F F F F F F F F F F F F F F F F F F F F F F F F F F F F F F F F F F F F F F F F F ",
"F F F F F F F F F F F F F F F F F F F F F F F F F F F F F F F F F F F F F F F F V V F F F F F F F F F F F F F F F F F F F F F F ",
"A.A.A.A.A.A.A.A.A.A.A.A.A.A.A.A.A.A.V.OX!.!.!.!.!.!.!.!.F F F F F F F !.!.!.!.!.!.OX!.!.A.A.A.A.A.A.A.A.A.A.A.A.A.A.A.A.A.A.A.A.",
"A.A.A.A.A.A.A.A.A.A.A.A.A.A.A.A.A.A.A.A.A.A.A.A.A.A.A.A.A.F F F F F A.A.A.A.A.A.A.A.A.A.A.A.A.A.A.A.A.A.A.A.A.L.A.A.A.A.A.A.A.A.",
"l.l.l.l.l.l.l.l.l.l.l.l.l.l.l.l.l.d.k.l.l.l.l.l.l.l.l.l.l.l.F F F l.l.l.l.l.l.l.l.l.l.l.l.l.l.l.d.M.l.l.l.l.l.l.l.l.l.l.l.l.l.l.",
"l.l.l.l.l.l.l.l.l.l.V.V.V.V.V.n.n.c.c.M.l.l.l.l.l.l.l.l.l.l.l.F F l.l.l.l.l.d.d.l.l.l.l.l.l.l.l.l.d.V.V.V.V.V.V.V.l.l.l.l.l.l.l.",
"l.l.l.l.l.l.l.l.l.l.l.l.l.k.k.b.&.O.l.l.l.l.l.l.l.l.l.l.l.l.l.F F l.l.l.l.d.g.c.k.l.l.l.l.l.l.l.l.l.l.l.l.l.l.l.l.l.l.l.l.l.l.l.",
"a.a.a.a.a.a.a.a.a.a.a.s.p.O.&.].].` a.a.a.a.a.a.a.a.a.a.a.a.a.F F a.a.a.a.a.a.` ` p.a.a.a.a.a.a.a.a.a.a.a.a.a.a.a.a.a.a.a.a.s.s.",
"a.a.a.a.a.a.a.a.a.a.a.a.O.].XXT.` p.a.a.a.a.a.a.a.a.a.a.a.a.a.Z F s.a.a.a.a.a.a.p._ p.p.a.a.a.a.a.a.a.a.a.a.a.a.a.a.a.a.a.a.a.a.",
"l.l.l.l.l.l.l.l.l.l.k.b.].XX1X|.O.l.l.l.l.l.l.l.a.i./ i./ / / j x F F F F l.l.l.f.X.b.k.l.l.l.l.l.l.l.l.l.l.l.l.l.l.l.l.l.l.l.l.",
"l.l.l.l.V.V.V.V.V.l.c.U.<X X1X1XJ.k.l.l.l.a./ / h % % ; : : p a s j j x D d.l.l.b.&.].J.x.V.V.V.V.l.l.l.l.l.l.l.l.l.l.l.l.l.l.l.",
"l.l.l.l.l.l.l.l.l.l.c.U.XX|.1XyX6Xb.V.V.d.A 4 d 0 2 r F ( { F.).v.: ; V i.s.l.d.c.J.1X|.O.l.l.l.l.l.l.l.l.l.V.C.V.V.V.V.l.l.g.f.",
"l.l.l.l.l.l.l.l.l.l.c.U.XX}.1XyXqXK.p.I z D F.).b.0 - 8 z P { F.).b.~ ~ , V a.d.b.T.1X<XF.k.l.l.l.l.l.l.l.l.l.l.l.l.l.l.l.g.$.*.",
"a.a.a.a.a.a.a.a.p.p.` U.XX|.1X0XuXqX[ ; d {  .F.).b.s 0 9 z P { F.).b.x O.o.l _ ].XX1X0X|._ a.a.a.a.a.a.a.a.a.a.a.a.a.i.i.#.:.-.",
"a.a.a.a.a.a.a.a.a.a.` U..X}.1X0XyXiXqX%.Z !  . .F.).`.b.0 9 z P { F.).} d G.O.' ]. X1XwX,X_ p.a.a.a.a.a.a.a.a.a.a.a.a.p.@.-.2X*X",
"a.a.a.a.a.a.a.a.a.a.` U.XX}.1X0X0XyXiX6X) Z }  . .F.).`.} * r B !  .F.O.D ~ F.o.) '.1XyX6X_ p.a.a.a.a.a.a.a.a.a.a.a.p.@.-.=X5X-X",
"Z F F F F F F F F F Q Y.<X}.oX9X0X0XyX1X) B !  . . .F.).b.0 9 z P {  .F.c.x ' F.( ' 9XuX6X) F F F F F F F F F F F F D =.*X3XeX&X",
"F F F A F F F F F A Q J. X X}.<X9X0X9XT.T c P {  . . .F.).b.0 q z !  . .K.} a  .Q #.qXiX:X) F F F F F F F F F F F F +.-.=X5X-XR ",
"F OXL.!.!.!.!.!.OXA.L.n.U.XX|.}.<X9X X) B B B P ]  . . .F.).} * r P  . .F. .x ~ b.( $.:Xb.L.A.A.A.A.L.L.A.!.!.!.!.G.=.*X2XeX=XD ",
"F A.A.A.A.A.A.A.A.A.A.n.U. XXX}.}.XXT.Q B B B B ! ( {  . .K.b.0 7 l  . . .K.} a ! B q x n.A.A.A.A.A.A.A.A.A.A.A.L.$.:.=X5X;X+.D ",
"F l.l.l.l.l.l.l.l.l.l.l.` &.|.}.}.&.c 9 i B B B B B P ( { F.)._ * 9 ! { ( b.~ - B B q h s.d.l.l.V.V.l.l.l.l.l.l.#.=.*X2XeX=XD D ",
"F l.l.l.l.l.l.l.l.l.l.l.B , &.}.&.k 8 8 9 B B B B B B B P ( b.~ * 8 l ! B B q 1 i B z 1 h V.V.V.V.V.V.V.V.V.l.d.#.-.=X5X-XR F F ",
"F l.l.l.l.l.l.l.l.l.d.a.z = y ) k = 7 8 8 9 i i z B B B B B B f = 2 r B B B B q 1 B r = h d.l.l.l.l.l.l.l.l.l.#.=.*X2XeX&X+.F F ",
"a.a.a.a.a.a.a.s.a.a.a.N * 8 8 y B w = 7 8 8 8 8 9 i z i i i i u 2 = 9 z B B B 2 - 9 8 - q / a.a.a.a.a.a.a.a.a.#.-.&X5X&X@.F F F ",
"a.a.a.a.s.a.a.a.a.a.s.N * 8 8 r B B g - 1 - 7 7 1 - - - 1 - > - * * 8 9 i u i 7 * - - - * 0 / a.a.a.a.s.a.a.[ =.=X4XeX;X[ a.F F ",
"l.l.l.l.l.l.d.l.l.l.d.C * 8 8 r B B ! D ; ; : - - - - - > > 1 - - - - 1 1 - 1 2 q s 0 = = 2 A l.l.l.d.l.l.g.#.-.3XeX;X[ l.l.F F ",
"l.l.l.l.l.l.l.V.V.V.V.A * 8 8 y B B ! {  . .x r r.h.h.h.h.h.r.Y ` ` j x s s s G K.~.R._ / l.l.l.l.l.l.l.l.$.=.-X5XrX>X$.l.l.F F ",
"a.a.l.l.l.l.l.l.l.l.l.F * 8 8 9 B B B !  . .x r ` x.P.E.E.P.O.> E .X%X%X{.{._.k < _.7X^./ k.l.l.l.V.V.V.d.$.-.4XrX5X#.l.l.l.F F ",
"a.a.l.l.d.l.d.l.l.l.l.A * 8 8 y B B B !  . .x w x.P.E.`.{.R.) <   @.7X%X7X7X'.<   W 8X(.^ l.l.d.l.l.l.l.#.=.=X5XrX>X$.d.l.l.F F ",
"a.a.a.a.a.s.a.a.a.s.a.N * 8 8 r B B B !  . .x r x.P.P.`.%X^.'.;.  W %X%X8X$X}.;.  W 8X(.^ a.a.a.a.a.a.p.@.:.4XrX4X' a.a.a.F F F ",
"F F a.s.a.a.a.a.a.a.a.A 1 2 8 9 z B B P {  .x w x.P.P.`.%X).t     W %X%X%X{.T   . W 8X(.U a.a.a.a.a.a.#.=.2XeXrX;X] a.a.g.D F F ",
"F F F 5.6.6.6.6.i.5.5.a.h * 8 8 r B B B !  .x w h.R.E.`.%X).t . X W %X%X%X{.T X X W 8X(.P a.a.a.a.s.i.@.-.2XeX>XE I i.I i.<.F F ",
"F F F F F F F F F F Z Z s = 1 8 9 B B B P ] D r Y j.P.`.%X`.k . X W %X%X%X#XQ . X W 7X(.c D F F F Q E =.=X4XeX&XE D F F F F F F ",
"F F F F F D Z F F F F L Z s = 2 8 9 z B B ! } D t L p./.`.P._ & & %.%X$X7X$Xo.# & %.8X(.c Q F F F D +.-.4XeX-XR F F F F Z F F F ",
"A.A.A.A.A.A.A.A.A.A.A.l.r.M.I 2 7 8 9 B B B P { D : r Y n.n.n.c D (.(.[.#X#X/.c D (.[.F.A l.A.A.A.G.=.=X4XeX>XG.A.A.A.A.A.A.A.A.",
"A.A.A.A.A.A.A.A.A.A.A.A.8.J r.I 7 2 8 9 N B B P {  .D * 2 b b b b b b I n.n.6.b b b n 3 ; ^ A.A.C.$.-.2XeX;X$.A.A.A.A.A.A.A.A.A.",
"l.l.l.l.l.l.l.l.l.d.8.8.4.7.j.P.p.0 1 8 9 B B B ~  .] M <.S.S.S.S.S.S.3.5 3 1.S.S.S.S.q.S s.l.l.| =.=X5XrX>X..l.l.l.l.l.l.l.l.l.",
"l.l.l.l.l.l.l.l.l.s.J t.Z.z.x.I.~.m.0 1 8 9 i z P ~ N 6 2.9.0.w.w.e.9.3.<.<.2.9.e.e.0.q.,.5.l.g.#.:.4XtX4X#.l.l.l.l.V.V.V.V.V.l.",
"l.d.l.l.l.l.l.d.s.s.8.j.P.~.+XOXOX`.n.p - 7 8 9 N e 3 6 >.>.>.>.,.2.<.b 3.3.b <.2.<.>.n <.n.l.#.=.2XeXrX;X#.l.l.l.l.l.l.l.l.l.l.",
"a.a.a.a.a.a.a.8.J K j.I.Q.OXQ.Z.P.~.@Xm.d 8 1 2 8 w l 3 5 6 6 6 b b 3.D.D.D.u.3.5 3 v S / ^ p.@.:.4XtX4X' a.a.a.a.a.a.a.a.a.a.a.",
"s.a.a.a.a.a.a.8.8.t.W.~.W.B.N.B.Q.@X+XOX+Xn.j p > 1 7 f n 0.0.e.S.S.S.S.u.S.u.0.>.M a.a.d & W =.2XrXeX;X[ a.a.a.a.a.a.a.a.s.a.a.",
"l.l.l.l.l.d.8.J t.N.N.N.z.y.y.z.I.OXW.I.~.@X@XH.d d c.l.6 2.0.0.0.e.e.e.u.e.w.2.n S l.l.! + @ *.2XrX4X#.l.l.l.l.l.l.l.l.l.d.l.l.",
"l.l.l.l.l.s.4.t.t.t.t.t.r.t.y.y.N.Z.Z.Q.@X+X+X@X@X@X@XC.<.2.2.2.2.0.0.w.e.9.2.b S d.a.s.d.j   < -.3X>X..l.l.l.l.l.l.l.l.l.l.l.l.",
"l.l.l.l.M.V.d.4.4.6.H u H 7.z.z.N.B.Z.I.OXW.Q.@X+X+X@X@XL.S >.>.,.2.2.2.2.,.n m I V 4 V F d & . < *.#.l.l.l.l.V.V.V.l.l.l.l.l.l.",
"l.l.l.l.l.l.l.8.8.s.N * 9 H Y t.y.y.N.B.B.B.W.~.Q.Q.@X@X@Xn.M S n >.,.>.>.n I 8.7 d v.( { ).b.& . @ @.d.l.l.l.l.l.l.l.l.l.l.l.l.",
"a.a.a.a.a.a.a.a.i.f 2 B i ~ ` 7.K J y.N.r.7.B.P.B.I.+X@X@X~.Q.+Xn.S M M M 6.y.9 o 4 D } J.F.^.~ # O & ^ a.a.a.a.a.a.a.a.a.a.a.a.",
"a.a.a.a.a.a.a.a.N 1 z r c F.K.c.i 8 4.J H 4.N.N.z.z.W.+X+X~.Q.~.W.+X~.W.OXN.8.u ; $ V b. . .{ j f c & k a.a.a.a.a.a.a.a.a.a.a.a.",
"a.a.a.a.a.a.a.a.z 1 y 8 c  .K.`.} 8 H 9 9 4.t.t.y.z.W.~.W.Q.I.I.Z.R.R.Z.N.4.m u : * r !  .{ ! 0 f a.a.a.a.a.a.a.a.a.a.a.a.a.a.a.",
"F F F F F F F F 4 2 i 9 c { v.).} - 8 * 9 K K K t.t.P.I.P.B.y.y.Z.r.7.N.r.u % 7 7 = 8 l ~ ! N 2 p F F F F F F F F F F F F F F F ",
"F F F F F F F F p 2 B r l F V K.} o # * 9 H > 8 K K K N.B.z.7.r.y.7.H H K 9 . + $ - e 9 e z 2 f F F F F F S F F F F F F F F F F ",
"V V OX!.!.!.!.!.^ 1 Z y r 2 1 _ T X + $ 7 0 . > H 9 9 4.y.y.r.H K K > > K u ; @ + # ; g q 2 i.A.A.A.A.A.!.!.!.!.OX!.!.!.!.!.F F ",
"F A.A.A.A.A.A.A.i.f h z f 4 q - X . . . & , @ & 9 * 9 J t.t.K i y t O k k.j.A.] & & : p 2 ^ L.L.A.A.A.A.A.A.L.L.A.A.A.A.A.A.F F ",
"l.l.l.l.l.l.l.l.V.S q q A d.U $ . # % , a # . O # - , 9 K K i p r r # , ^ a.d.d.M.l.l.l.l.l.l.l.d.M.l.l.l.l.l.l.l.l.l.l.l.l.F F ",
"l.l.l.l.l.l.l.l.V.V.^ A V.V.d.d o , d p , & O X + - p i J i p a : + & s d c i.a.l.l.l.l.l.l.l.l.l.d.V.V.V.V.l.l.l.l.l.l.l.l.F F ",
"l.l.l.l.l.l.l.l.d.l.d.M.l.a.V ; D F.).b.a p & O + - , y i p p 0 : ; ) ^.^.o.d V a.l.l.l.d.l.l.d.l.d.l.l.l.d.l.l.l.l.l.l.l.F F F ",
"a.a.a.a.a.a.a.a.a.a.a.a.i.h d ( {  .F.^.^.o.s : # % ; p p p , ; d  . .|  .F.^.c.x / a.a.a.a.s.a.s.a.a.a.s.a.a.a.a.a.a.a.a.F F F ",
"a.s.a.a.a.a.a.a.a.a.s.i.h 2 g r Z ~ {  . .F.^.~ + # * : , 0 * * l ~ ]  .{ ( ~  .~ q / s.a.a.s.a.a.a.a.a.a.a.a.a.a.a.a.a.F F F F ",
"d.l.l.l.l.l.l.M.l.l.d.A 1 B i 9 8 r Z ~ ~ ~ ! x $ + # # # $ % 1 8 r Z ~ Z i 9 9 z 2 h d.M.d.l.l.l.l.l.l.l.l.l.l.l.l.l.l.F F F F ",
"l.l.l.l.l.l.l.d.l.V.V.^ 2 z B B i 9 w f 9 q 9 i 0 $ & & & $ 1 V i w 9 w w y z r f f A V.V.V.l.l.l.l.l.l.l.l.l.l.l.l.l.l.l.F F F ",
"a.a.l.l.l.l.l.l.l.l.l.l.^ q r g g r h f h r e g r A V.V.V.^ q h h r r g r h q 2 1 A l.l.d.l.l.l.l.l.l.V.V.V.V.V.V.l.l.l.l.F F F ",
"a.a.l.l.l.l.l.l.l.d.M.d.d.S 4 2 1 1 1 1 1 1 1 2 A l.l.l.l.l.S 1 1 1 1 4 2 2 A d.l.l.l.l.l.l.l.l.l.d.M.l.l.l.l.l.l.d.M.d.l.l.F F ",
"F F a.a.a.a.a.a.s.a.a.a.s.a.a.a.a.a.a.a.a.a.a.a.a.a.a.a.a.a.a.a.a.a.a.a.a.a.a.a.a.a.a.a.a.a.a.a.a.a.a.a.a.a.a.a.s.a.a.a.a.a.F F ",
"a.F F F a.a.a.a.a.a.a.a.a.a.a.a.a.a.a.a.a.a.a.a.a.a.a.a.a.a.a.a.a.a.a.a.a.a.a.a.a.a.a.a.a.a.a.a.a.a.a.a.a.a.a.a.a.a.s.a.a.g.F F ",
"6.6.6.i.6.6.I 5.i.a.a.a.a.a.a.a.a.a.a.a.a.a.a.a.a.a.a.a.a.a.a.a.a.a.a.a.a.a.a.a.a.a.a.a.a.a.a.a.a.a.a.a.6.6.6.I 5.i.5.U i.<.F F "
};
