/* XPM */
static char *result[] = {
/* columns rows colors chars-per-pixel */
"64 64 166 2 ",
"   c #33312E",
".  c #39332F",
"X  c #352F32",
"o  c #363332",
"O  c #393635",
"+  c #3D3B36",
"@  c #3D3C3B",
"#  c #413F3D",
"$  c #613E21",
"%  c #663A31",
"&  c #6A3C32",
"*  c #43423F",
"=  c #634123",
"-  c #674529",
";  c #6B4A2F",
":  c #6E4D33",
">  c #714134",
",  c #7E4A36",
"<  c #705137",
"1  c #74553B",
"2  c #454443",
"3  c #484846",
"4  c #4C4C4C",
"5  c #544E4D",
"6  c #4F504F",
"7  c #51504F",
"8  c #535453",
"9  c #595857",
"0  c #5C5D5C",
"q  c #624648",
"w  c #7A5D44",
"e  c #605F5E",
"r  c #7E624A",
"t  c #61605F",
"y  c #5F6060",
"u  c #656565",
"i  c #676868",
"p  c #696A6A",
"a  c #70706F",
"s  c #747373",
"d  c #7C7D7C",
"f  c #804A1B",
"g  c #865326",
"h  c #8C5526",
"j  c #8C5629",
"k  c #8E592B",
"l  c #905627",
"z  c #905728",
"x  c #915C2E",
"c  c #9A5F2E",
"v  c #814C37",
"b  c #824E39",
"n  c #8D5D33",
"m  c #8C543B",
"M  c #925E31",
"N  c #91593B",
"B  c #9D612E",
"V  c #946135",
"C  c #9F6331",
"Z  c #94643A",
"A  c #A0602F",
"S  c #A26633",
"D  c #A66833",
"F  c #AF713C",
"G  c #B1733C",
"H  c #F5633A",
"J  c #FB653A",
"K  c #FE6A3B",
"L  c #FD783E",
"P  c #915D41",
"I  c #81654E",
"U  c #9A6546",
"Y  c #9D6444",
"T  c #826750",
"R  c #866B54",
"E  c #896F5A",
"W  c #8B715B",
"Q  c #A26B48",
"!  c #AC744D",
"~  c #8D7476",
"^  c #F87645",
"/  c #FE7A45",
"(  c #F56C54",
")  c #F38535",
"_  c #BE814A",
"`  c #A9805C",
"'  c #B98659",
"]  c #B68A64",
"[  c #B78D6A",
"{  c #BB916E",
"}  c #B69376",
"|  c #BD9573",
" . c #BF9877",
".. c #B89679",
"X. c #C88F5C",
"o. c #C9905D",
"O. c #FD854C",
"+. c #FC9944",
"@. c #FA8E54",
"#. c #EC9250",
"$. c #F39550",
"%. c #FC9A5A",
"&. c #FFAE49",
"*. c #FEB249",
"=. c #C4956A",
"-. c #C4956B",
";. c #D09761",
":. c #D69D65",
">. c #D89F65",
",. c #C69A73",
"<. c #C89C75",
"1. c #C29C7D",
"2. c #C99E78",
"3. c #F79F7E",
"4. c #D9A066",
"5. c #C7A07F",
"6. c #CBA27D",
"7. c #FDA462",
"8. c #FFA961",
"9. c #FAB36B",
"0. c #FEBC70",
"q. c #F3C751",
"w. c #F7CB52",
"e. c #FFE544",
"r. c #FFEA44",
"t. c #F6F546",
"y. c #FFFC54",
"u. c #FACB7A",
"i. c #FDD27D",
"p. c #FDFB62",
"a. c #FAF866",
"s. c #FFFD7A",
"d. c #A11F9A",
"f. c #A5219E",
"g. c #A721A0",
"h. c #AA24A3",
"j. c #AC2AA4",
"k. c #AF29A8",
"l. c #B12CAB",
"z. c #B534AE",
"x. c #B934B2",
"c. c #BD39B6",
"v. c #BF39B8",
"b. c #C33DBC",
"n. c #C541BC",
"m. c #C943C2",
"M. c #CB45C4",
"N. c #CE48C7",
"B. c #D44ECD",
"V. c #D452CD",
"C. c #D856CD",
"Z. c #D751D0",
"A. c #D954D2",
"S. c #DC59D5",
"D. c #E25CDB",
"F. c #F872F1",
"G. c #848686",
"H. c #C39C80",
"J. c #CAA381",
"K. c #F7D380",
"L. c #FFE187",
"P. c #FFE488",
"I. c #FFFD86",
"U. c #FEF592",
"Y. c #FC8CF6",
"T. c #F9B2F5",
/* pixels */
"$ $ $ $ $ $ $ $ $ $ $ $ $ $ $ $ $ $ $ $ $ $ $ $ $ $ $ $ $ $ $ $ $ $ $ $ $ $ $ $ $ $ $ $ $ $ $ $ $ $ $ $ $ $ $ $ $ $ $ $ $ $ $ $ ",
"$ $ $ $ $ $ $ $ $ $ $ $ $ $ $ $ = = $ $ $ $ $ $ $ $ $ $ $ $ $ $ $ $ $ $ $ $ $ $ $ $ $ $ $ $ $ $ $ $ $ $ $ $ $ $ $ $ $ $ $ $ $ $ ",
"G G G G G G G G G G G G G G G G G G G _ _ _ _ _ _ _ _ _ $ $ $ $ $ $ $ _ _ _ _ _ _ _ _ _ G G G G G G G G G G G G G G G G G G G G ",
"G G G G G G G G G G G G G G G G G G G G G G G G G G G G G $ $ $ $ $ G G G G G G G G G G G G G G G G G G G G G G G G G G G G G G ",
"B B B B B B B B B B B B B B B B B B B B B B B B B B B B B B $ $ $ B B B B B B B B B B B B B B B B B B B B B B B B B B B B B B B ",
"B B B B B B B B B B D D D D D D D D D B B B B B B B B B B B B $ $ B B B B B B B B B B B B B B B B B D D D D D D D B B B B B B B ",
"B B B B B B B B B B B B B B B B B B B B B B B B B B B B B B B $ $ B B B B B B B B B B B B B B B B B B B B B B B B B B B B B B B ",
"h h h h h h h h h h h h h h h h h h h h h h h h h h h h h h h $ $ h h h h h h h h h h h h h h h h h h h h h h h h h h h h h h h ",
"h h h h h h h h h h h h h h h h h h h h h h h h h h h h h h h $ $ h h h h h h h h h h h h h h h h h h h h h h h h h h h h h h h ",
"B B B B B B B B B B B B B B B B B B B B B B B B B B B B B B B $ $ $ $ $ $ B B B B B B B B B B B B B B B B B B B B B B B B B B B ",
"B B B B D D D D D B B B B B B B B B B B B B B B B B B B B B B $ $ $ $ $ $ B B B D D D D D D D D D B B B B B B B B B B B B B B B ",
"B B B B B B B B B B B B B B D D D D D D D D D D D B B B B $ $ $ $ h h B B B B B B B B B B B B B B B B B B B D D D D D D B B B B ",
"B B B B B B B B B B B B B B B B B B B A C C C C C C C C = $ = = = h k B C S S S S C C B C B B B B B B B B B B B B B B B B B B B ",
"h h h h h h h h h h h h h h h h h h h h x x x x x x x x k k k - = B x x x x M M M n B z k h h h h h h h h h h h h h h h h h h h ",
"h h h h h h h h h h h h h h h h h h h l x V Z Z Z Z Z M x x V ; : : Z V Z Z Z Z Z V x z k h h h h h h h h h h h h h h h h h h h ",
"h h h h h h h h h h h h h h h h h h h ; g n Z Z Z Z n n h g ; < 1 w w w Z Z Z Z n n h : h h h h h h h h h h h h h h h h h h h h ",
"$ $ $ $ $ $ $ $ $ $ $ $ $ $ $ $ $ $ = ; < w r I r r r 1 ; $ ; 1 r r r r r r r r w 1 ; - $ $ $ $ $ $ $ $ $ $ $ $ $ $ $ $ $ $ $ $ ",
"$ $ $ $ $ $ $ $ $ $ $ $ $ $ $ $ $ $ = 1 w T R W W E R r $ $ = r a r ` W W R R r r w : $ $ $ $ = $ $ $ $ $ $ $ $ $ $ $ $ $ $ $ $ ",
"$ X.G X._ _ G X._ G G G G G G G G G _ ] =.-.<.6.6.6.6.=.' G ' =.<.<.6.,.<.,.-.,.=.' ' G G G G G G G G G G _ _ _ _ _ _ _ _ _ $ $ ",
"$ G G G G G G D G G G G G G G G G G ' ;.<.<.6.6.6.6.6.6.6.,.6.6.6.6.6.<.o.{ ,.<.<.<.=._ G G G G G G G G G G G G G G G G G G $ $ ",
"$ B B B A B B B B B B B B B B B B ` [ | | |  .1.1.1.1.1.1.1.1.1.6. .[ | B 1.] | -.| ] ` B B B B B B B B B B B B B B B B B $ $ $ ",
"$ B B B A A B B B B B B B B D D D ' ,.1.5.,. .1.1.1.1...| 1.1.1.5. .| B B C {  .1. .-.] ` S D D D D D D D D B B B B B B $ $ $ $ ",
"$ B B B B B B B B B B B B B B B B B 1.1.1.1.1.1.1.1.1.1.C 1.1.1.1.1. .B B B 1.1.1.1.1. .| 1. .V B B B B B B B B B B B B $ $ $ $ ",
"h h h h h h h h h h h h h h h h h h ................} k h k ..................................} h h h h h h h h h h h h h $ $ $ ",
"h h h h h h h h h h h h h h h h h k ..................h h h ..............k ....................h h h h h h h h h h h h h h $ $ ",
"B B B B B B B B B B B B B B B B B B 1.1.1.1.1.1.5.1.1.B B C 1.1.1.1.1.1.B B 1.1.1.H.1.H.H.1.1.1.B B B B B B B B B B B B B B $ $ ",
"B B B B A B B D D D D D D D D B B B C 5.1.1.1.1.1.1.1. .C 1.1.1.1.1.1.S D D 6.5.1.1.1.1.1.1.1.1.B B B B B B B B B B B B B B $ $ ",
"h h B B B B B B B B B B B B B B B B B C 6.| 5.5.5.5.5.C C S 1.1.1.1.1.B C 1.S 1.1.5.1.1.1.H.J.1.B D D D D D D D B B B B B B $ $ ",
"h h B B B B B B B B B B B B B B B B B B C ] ] n.]  .1. .C C 5.1.1.5.1.1.1.C 1.1.5.1.1.C.1.1.1.2.B B B B B B B B B B B B B B $ $ ",
"h h h h h h h h h h h h h h h h h h h h } ` j j k [ } o o j.f.* * * * *   k k k .. ...........} h h h h h h h h h h h h h $ $ $ ",
"$ $ h h h h h h h h h h h h h h h h j } j } +   + * *   d.c.M.c.0 0 V.* *       O * ........=.} h h h h h h h h h h l l l $ $ $ ",
"$ $ $ f f f f f f f f h h h h h h j } h * * +   8 0 t u f.z.l.l.0 a a t y 4 2 2 O * * * ....{ l h h h h h f f f f f f f f - $ $ ",
"$ $ $ $ $ $ $ $ $ $ $ $ $ $ $ = $ $ X @ 2 r 4 8 0 s x.x.h.f.g.g.f.f.j.T.C.C.9 9 6 u * 2 8 2 = = $ $ $ $ $ $ $ $ $ $ $ $ $ $ $ $ ",
"$ $ $ $ $ $ $ = $ $ $ $ $ $ $ =   @ X q A.S.x.g.k.x.x.b.x.x.x.x.z.z.F.S.S.D.S.g.h.d s a 2 * @   $ $ $ $ $ = $ $ $ $ $ $ $ $ $ $ ",
"G G G G G G G G G G G G F F F   @ X y ~ D.b.k.l.k.k.Y.Z.v.v.v.B.N.n.B.B.B.A.B.V.z.z.z.G.a 8   + . F F F G G G G F G G G G G G G ",
"G G G G G G G G G G G G F F . o o   @ z.g.g.b.k.l.F.A.Z.B.x.N.Z.N.n.n.n.m.m.v.k.l.v.g.g.f.    O O . F F G G G G G G G G G G G G ",
"B B B B B B B B B B B B B B   o o O   X g.g.g.g.k.b.m.b.v.x.v.b.c.x.l.k.k.k.h.h.f.f.f.f.o X O o o   B B B B B B B B B B B B B B ",
"B B B B B B B B B B B D D D C   O @ O @ X X X X f.g.l.k.g.g.g.g.g.g.g.f.g.g.g.g.X X X X @ O @ o   B B B B B B B B B D D D D D B ",
"B B B B B B B B B B B B J B B B   o 2 3 * # * 2 X X X X X X f.f.f.f.X X X o o X 2 2 # * 2 2     B B B B B B B B B B B B B B B B ",
"h h h h h h h h h h h h z h g h   @ 2 6 i i y 3 2 # # 2 2 2 X X X X 2 2 * @ @ * 3 i u u 4 2 @   g h h h h h h h h h h h h h h h ",
"h h h h h h h h h h h h h h g g   @ 3 6 2 3 i i u u 4 6 6 4 2 2 2 3 4 4 4 4 i i i i 2 3 5 ( 2   h h h h h h h h h h h h h h h h ",
"B B B B B B B B B B B B B B B B   @ 6 6 6 6 6 4 4 2 6 u u u u i y i i i i 6 3 3 4 7 7 7 6 5 (   B B B B B B B B B B B B B B B B ",
"B B B B B B B B B B B B B B B B   @ 4 8 y y y y 9 8 8 4 6 6 6 6 6 6 6 6 4 8 8 9 0 y y y 9 4 #   B B B B B B B B B B B B B B B B ",
"B B B B D D D D B B B B B B B B   @ 3 8 y y K.i i u u y 9 0 y u y y 0 9 y u u u i K.u 0 8 3 #   B B J B B B B D D D B B B B B B ",
"B B B B B B B B B B B B B B A ) #.  3 6 0 y a K.i p i i p p p i p i i p i p p i i i u 9 8 2 o $.) B A B B B B B B B B B B B B B ",
"h h h h h h h h h h h h h h h z ) X # 4 8 y K.U.i i p p p p p p p p p p p p p p K.u.0 9 4 @ o ) h h h h h h h h h h h h h h h h ",
"h h h h h h h h h h h h h h h z $.#.H 2 8 9.P.U.K.u i i p p i p p p p p i p p K.U.L.9.4 2 J $.$.h h h h h h h h h h h h h h h h ",
"h h h h h h h h h h h h h h h g k w.e.^ 3 7.K.I.u.y u i i i i i p i i i i y i u.L.i.%.3 ^ e.q.k h h h h h h h h h h h h h h h h ",
"$ $ $ $ $ $ $ $ $ $ $ $ $ $ = H = w.w.J # @.u.s.9.0 y u u u u u u u u u 3.u e 0.i.0.@.# K w.q.$ $ $ $ $ $ $ $ $ $ $ = $ $ $ $ $ ",
"$ $ $ $ $ $ $ $ $ $ $ $ $ = H = = w.w.L . / 8.p.7.8 8 9 0 0 0 y e e 0 0 0 9 8 8.9.7.^   L w.q.$ $ $ $ $ $ $ $ $ $ $ = = $ $ $ $ ",
"$ $ _ _ _ _ _ _ _ G G G G G G G G & & & & . / %.p.a.%.6 6 8 8 8 8 8 8 8 7 %.p.p.y.L . > & & & G G G G G X.G G X.X.G X.G G X.$ $ ",
"$ G G G G G G G G G G G G G G & & m m m m v J / r.y.O.* 2 2 a.2 2 2 2 2 * O.y.r.e.J , m m N m % - G G G G G G G D G G G G G $ $ ",
"B B B B B B B B B B B B A B c % U :.:.:.N N *.&.K r.J H O O + o O + t.+ J J e.L *.*.m N :.:.:.U & c B B B B B B B B A B A A $ $ ",
"B B B B B B B B D D D D D D D % ! >.;.X.:.m N N m +.&     J t.X o t.H   . & ) N N N N :.o.;.>.Q & A D D D D B B B B B B A A $ $ ",
"B B B B B B B B B B B B B B B c & >.;.;.>.:.Y m , , % % b Q M m m N Y , % % , v m Q :.>.;.;.:.& c B B B B B B B B B A B A $ $ $ ",
"h h h h h h h h h h h h h h h h & >.>.>.>.:.U , % % % % P ! :.:.:.:.! U % % % % , Q 4.4.4.>.:.& h h h h h h h h h h h h h $ $ $ ",
"h h h h h h h h h h h h h h h h h & & 4.:.N % % % h h & :.>.4.o.X.4.4.;.& g g % % & M >.:.& & h h h h h h h h h h h h h $ $ $ $ ",
"B B B B B B B B B B B B B B B B B c % & & % & B c B c & 4.4.4.o.X.4.4.4.& B B C B $ & & & & c B B B B B B B B B B B B B $ $ $ $ ",
"B B B B B A B B B D D D B B B B B B B B C C c B C c C c & 4.4.>.4.4.:.& B B B B B B B D S S B B B B B B B B B B B B B B B $ $ $ ",
"h h B B B B B B B B B B B B B B B B B B S D S D D S D D S & & & & & & B B B B B B B B B B B B B B B B D D D D D D B B B B $ $ $ ",
"h h B B B B B B B B B B B B B B B B B B B B B B A B B B B B B B B B B B B B B B B B B B B B B B B B B B B B B B B B B B B B $ $ ",
"$ $ h h h h h h h h h h h h h h h h h h h h h h h h h h h h h h h h h h g h h h h h h h h h h h h h h h h h h h h h h h h h $ $ ",
"h $ $ $ h h h h h h h h h h h h h h h h h h h h h h h h h h h h h h h h h h h h h h h h h h h h h h h h h h h h h h h h h h $ $ ",
"f f f f f f f f f h h h h h h h h h h h h h h h h h h h h h h h h h h h h h h h h h h h h h h h h h h h f f f f f f f f f f $ $ "
};
