/* XPM */
static char *a10bf0c59ab0430991ea5122e28a69f0NIyFsnvDtqkGlGa2[] = {
/* columns rows colors chars-per-pixel */
"64 64 166 2 ",
"   c #170F24",
".  c #191027",
"X  c #1B132A",
"o  c #1F1630",
"O  c #241625",
"+  c #211825",
"@  c #291A24",
"#  c #271928",
"$  c #2A1B2A",
"%  c #321F24",
"&  c #291A35",
"*  c #27193C",
"=  c #281A3C",
"-  c #1D2735",
";  c #1C2935",
":  c #1E2D38",
">  c #1F303B",
",  c #2A222C",
"<  c #362225",
"1  c #392629",
"2  c #3B2629",
"3  c #2D2331",
"4  c #332D34",
"5  c #332C38",
"6  c #21333F",
"7  c #2E3A3B",
"8  c #3D3331",
"9  c #4F3221",
"0  c #573721",
"q  c #593920",
"w  c #443D3A",
"e  c #613E21",
"r  c #2B5922",
"t  c #5C4C17",
"y  c #645613",
"u  c #6A5616",
"i  c #655718",
"p  c #715F1D",
"a  c #6C601B",
"s  c #714526",
"d  c #734827",
"f  c #7D4C25",
"g  c #7D4D2B",
"h  c #715234",
"j  c #446E31",
"k  c #756924",
"l  c #756A2A",
"z  c #79692B",
"x  c #74762B",
"c  c #7D722C",
"v  c #7D7231",
"b  c #2B1C43",
"n  c #392B40",
"m  c #32234E",
"M  c #34284C",
"N  c #253845",
"B  c #263946",
"V  c #362B54",
"C  c #382C57",
"Z  c #3A2F5A",
"A  c #3F3162",
"S  c #403163",
"D  c #45346B",
"F  c #2B4352",
"G  c #2F4958",
"H  c #39586B",
"J  c #3D5F70",
"K  c #4C4742",
"L  c #557540",
"P  c #426676",
"I  c #4E7D79",
"U  c #804A1B",
"Y  c #875423",
"T  c #8C5526",
"R  c #84532F",
"E  c #8C562C",
"W  c #945F2A",
"Q  c #9B5F2D",
"!  c #885333",
"~  c #945C30",
"^  c #975D3B",
"/  c #91602A",
"(  c #9D612E",
")  c #9D6638",
"_  c #857D36",
"`  c #9E733B",
"'  c #A46632",
"]  c #A66833",
"[  c #A06738",
"{  c #A8743D",
"}  c #B1733C",
"|  c #867D40",
" . c #A96D47",
".. c #AB7445",
"X. c #56AF45",
"o. c #5EB747",
"O. c #60BF4D",
"+. c #6BB853",
"@. c #71BA50",
"#. c #6FC55A",
"$. c #90844E",
"%. c #998C4B",
"&. c #918A51",
"*. c #988A5A",
"=. c #B98047",
"-. c #BE814A",
";. c #A3954B",
":. c #A19554",
">. c #A49955",
",. c #AB9D52",
"<. c #A89D5B",
"1. c #B29E53",
"2. c #ABA05C",
"3. c #B4A75A",
"4. c #B9A75B",
"5. c #B5A85B",
"6. c #A28F6A",
"7. c #AB9B63",
"8. c #B8AA66",
"9. c #BDB163",
"0. c #BEB269",
"q. c #C5BB6B",
"w. c #C5BB70",
"e. c #83CD68",
"r. c #5B3B8D",
"t. c #5E3F92",
"y. c #623F96",
"u. c #5F4094",
"i. c #734887",
"p. c #764B88",
"a. c #7B4F8C",
"s. c #6B4595",
"d. c #6C4D94",
"f. c #64429B",
"g. c #704895",
"h. c #73519B",
"j. c #6A45A4",
"k. c #568A84",
"l. c #5B938B",
"z. c #C5C787",
"x. c #D9D889",
"c. c #E9DE8C",
"v. c #DFE08A",
"b. c #DDE194",
"n. c #E1E28C",
"m. c #E1E496",
"M. c #E4E993",
"N. c #E9EA94",
"B. c #E6F699",
"V. c #EAF69B",
"C. c #F1F49B",
"Z. c #D8E2AE",
"A. c #D7EFB5",
"S. c #F7FCA2",
"D. c #FAFFA5",
"F. c #F7FDA8",
"G. c #FAFFAB",
"H. c #E1E0B0",
"J. c #E7E9BA",
"K. c #EAEABD",
"L. c #F5F0BF",
"P. c #ECECC0",
"I. c #EBF7C1",
"U. c #F4F4C6",
"Y. c #FCFFCD",
"T. c #FCFFD3",
/* pixels */
"e e e e e e e e e e e e e e e e e e e e e e e e e e e e e e e e e e e e e e e e e e e e e e e e e e e e e e e e e e e e e e e e ",
"e e e e e e e e e e e e e e e e e e e e e e e e e e e e e e e e e e e e e e e e e e e e e e e e e e e e e e e e e e e e e e e e ",
"} } } } } } } } } } } } } } } } } } } -.-.-.-.-.-.-.-.-.e e e e e e e -.-.-.-.-.-.-.-.-.} } } } } } } } } } } } } } } } } } } } ",
"} } } } } } } } } } } } } } } } } } } a. .} } } } } } } } e e e e e } } } } } } } } } } } } a. .} } } } } } } } } } } } } } } } ",
"( ( ( ( ( ( ( ( ( ( ( ( ( ( ( ( ( ( < y.s.^ ( ( ( ( ( ( ( ( e e e ( ( ( ( ( ( ( ( ( ( ( ( p.j.& E ( ( ( ( ( ( ( ( ( ( ( ( ( ( ( ",
"( ( ( ( ( ( ( ( ( ( ] ] ] ] ] ] ] ] @ Z f.s.^ ( ( ( ( ( ( ( ( e e ( ( ( ( ( ( ( ( ( ( ( p.j.D X E ( ] ] ] ] ] ] ] ( ( ( ( ( ( ( ",
"( ( ( ( ( ( ( ( ( ( ( ( ( ( ( ( ( < M Z A f.s.^ ( ( ( ( ( ( ( e e ( ( ( ( ( ( ( ( ( ( p.j.D Z V # E ( ( ( ( ( ( ( ( ( ( ( ( ( ( ",
"T T T T T T T T T T T T T T T T T O V Z Z f.j.s.! T T T T T T e e T T T T T T T T T i.j.j.S Z Z X f T T T T T T T T T T T T T T ",
"T T T T T T T T T T T T T T T T T O V Z Z A f.j.s.! T T T T T e e T T T T T T T T i.j.j.D Z Z Z X f T T T T T T T T T T T T T T ",
"( ( ( ( ( ( ( ( ( ( ( ( ( ( ( ( < * C Z Z Z A f.j.s.^ ( ( ( ( e e e e e e ( ( ( p.j.j.D Z Z Z Z b # E ( ( ( ( ( ( ( ( ( ( ( ( ( ",
"( ( ( ( ] ] ] ] ] ( ( ( ( ( ( ( @ * C Z Z Z Z f.j.j.s.g.g.g.g.s.s.s.s.s.s.g.g.g.j.j.j.S Z Z Z Z b . E ( ( ( ( ( ( ( ( ( ( ( ( ( ",
"( ( ( ( ( ( ( ( ( ( ( ( ( ( ] ] @ * C Z Z Z Z A f.j.j.j.j.j.j.j.j.j.j.j.j.j.j.j.j.j.D Z Z Z Z Z b . E ( ( ( ] ] ] ] ] ] ( ( ( ( ",
"( ( ( ( ( ( ( ( ( ( ( ( ( ( ( ( @ * C Z Z Z Z Z f.j.D S S S S S S S S S S S S S f.j.S Z Z Z Z Z b . E ( ( ( ( ( ( ( ( ( ( ( ( ( ",
"T T T T T T T T T T T T T T T T O * C Z Z b C t.D S Z Z Z Z Z Z Z Z Z Z Z Z Z Z A S u.A Z Z Z Z b . f T T T T T T T T T T T T T ",
"T T T T T T T T T T T T T T T T O * b C b r.A A Z Z Z Z Z Z Z Z Z Z Z Z Z Z Z Z Z Z A Z b C Z Z b . f T T T T T T T T T T T T T ",
"T T T T T T T T T T T T T T T T O * b b r.D Z Z Z Z Z Z Z Z Z Z Z Z Z Z Z Z Z Z Z Z Z Z t.m C b b . f T T T T T T T T T T T T T ",
"e e e e e e e e e e e e e e e e O * b b y.S Z Z Z Z Z Z Z Z Z Z Z Z Z Z Z Z Z Z Z Z Z Z A t.m b b . 0 e e e e e e e e e e e e e ",
"e e e e e e e e e e e e e e e e q + * r.D Z Z Z Z Z Z Z t.f.f.f.f.f.f.f.f.f.A Z Z Z Z Z Z f.m b X 9 q e e e e e e e e e e e e e ",
"e -.-.-.-.-.-.-.-.} } } } } } } } @ . Z Z Z Z Z Z Z t.f.6.7.7.7.7.7.7.7.7.7.d.f.A Z Z Z Z A t.&   ) } } } -.-.-.-.-.-.-.-.-.e e ",
"e } } } } } } } } } } } } } } } } @ M Z Z Z Z Z t.f.6.7.3.3.3.3.3.3.3.3.3.3.7.7.d.f.A Z Z Z A V X ) } } } } } } } } } } } } e e ",
"e ( ( ( ( ( ( ( ( ( ( ( ( ( ( ( < M Z Z Z Z Z t.6.7.3.3.3.3.3.3.3.3.3.3.3.3.3.3.7.7.d.A Z Z Z Z V # E ( ( ( ( ( ( ( ( ( ( e e e ",
"e ( ( ( ( ( ( ( ( ( ( ( ( ( ] ] @ V Z Z Z Z t.6.3.3.3.3.N.c a n.C.C.C.c a ,.3.3.3.3.7.d.A Z Z Z Z X ~ ] ] ] ( ( ( ( ( ( e e e e ",
"e ( ( ( ( ( ( ( ( ( ( ( ( ( ( < M Z Z Z Z Z f.7.3.3.N.C.S.N.N.S.D.D.D.N.N.C.C.9.3.3.3.h.S Z Z Z Z V # E ( ( ( ( ( ( ( ( e e e e ",
"T T T T T T T T T T T T T T % M Z Z Z Z Z Z f.7.3.N.S.D.D.D.D.D.D.D.D.D.D.D.D.C.C.9.3.h.S Z Z Z Z Z V # f T T T T T T T T e e e ",
"T T T T T T T T T T T T T % M Z Z Z Z Z Z *.7.N.C._ k @.j J.G.D.D.D.D.D.Y.L +.x k n.C.8.3 V Z Z Z Z Z V # f T T T T T T T T e e ",
"( ( ( ( ( ( ( ( ( ( ( ( < * b C Z Z Z Z o :.N.S.Y.K.+.o.r +.I.G.D.D.D.Y.e.r X.o.Z.Y.G.C.2., V Z Z Z Z b = # E ( ( ( ( ( ( ( e e ",
"( ( ( ( ( ( ( ] ] ] ] ] ~ # . b b C Z Z X :.C.D.G.G.I.#.r X.#.V.D.D.D.e.O.r X.A.G.G.D.D.9., V Z Z b b X . g Q ( ( ( ( ( ( ( e e ",
"T T ( ( ( ( ( ( ( ( ( ( ( E E # . b b b = , 2.C.D.D.G.V.M.B.B.S.Y.Y.G.V.B.M.B.F.D.D.D.q.8 * b b b X . R ~ ' ] ] ( ( ( ( ( ( e e ",
"T T ( ( ( ( ( ( ( ( ( ( ( ( ( E E # . * b * , 2.C.D.D.D.D.D.D.D._ l N.D.D.D.D.D.D.D.q.8 * b b X . g E Q ( ( ( ( ( ( ( ( ( ( e e ",
"T T T T T T T T T T T T T T T T T f f # . .   $ 2.C.D.D.D.D.D.D.N.N.S.D.D.D.D.D.D.q.8 . . . . s f T T T T T T T T T T T T e e e ",
"e e T T T T T T T T T T T T T T T T T f f f f f 1 4 4 m.D.D.D.D.D.D.D.D.D.D.D.K 4 , s f f f f T T T T T T T T T T T T T T e e e ",
"e e e U U U U U U U U T T T T T T T T T T T T T f f f 8 4 4 4 4 4 4 4 4 4 4 4 d f f T T T T T T T T T T T U U U U U U U U U e e ",
"e e e e e e e e e e e e e e e e e e e e e e e e e e @ * * - B B ; - B B ; * * + q e e e e e e e e e e e e e e e e e e e e e e e ",
"e e e e e e e e e e e e e e e e e e e e e e e e e @ * b - I J F : ; B H k.B = * + 0 e e e e e e x.J.h e e e e e e e e e e e e e ",
"} } } } } } } } } } } } } } } } } } } } } } } -.1 * b - I l.P 6 &.:.7 H l.k.B = * # [ } } } } c.S.G.L.-.} } } } } } } } } } } } ",
"} } } } } } } } } } } } } } } } } } } } } } } 1 * b b ; k.P G : :.3.7 F J l.B = b * # [ } } } =.C.D.Y.-.} } } } } } } } } } } } ",
"( ( ( ( ( ( ( ( ( ( ( ( ( ( ( ( ( ( ( ( ( ( ( @ * b b ; F F > &.3.3.>.7 F G : = b b . E ( ( ( ( 4.C.G.{ ( ( ( ( ( ( ( ( ( ( ( ( ",
"( ( ( ( ( ( ( ( ( ( ( ] ] ] ] ] ( ( ( ( ( ( < M C C b = : : &.3.N.C.9.>.7 : = b V C V # ~ ] ( ( 1.C.D.{ ( ( ( ( ( ( ] ] ] ] ] ( ",
"( ( ( ( ( ( ( ( ( ( ( ( ( ( ( ( ( ( ( ( ( ( @ V Z Z C b X $.3.N.S.D.C.9.>., * V Z Z Z X E ( ( ( 1.C.q.[ ( ( ( ( ( ( ( ( ( ( ( ( ",
"T T T T T T T T T T T T T T T T T T T T T % M Z Z Z Z X $.3.N.S.D.D.D.C.9.:., V Z Z Z V # f T u x.S.` T T T T T T T T T T T T T ",
"T T T T T T T T T T T T T T T T T T T T T O V Z Z Z o $.3.N.S.D.D.D.D.D.C.9.:., V Z Z Z X t y ;.9.c T T T T T T T T T T T T T T ",
"( ( ( ( ( ( ( ( ( ( ( ( ( ( ( ( ( ( ( ( < M Z Z Z Z X :.N.S.D.D.D.D.D.D.D.C.9., V Z Z Z V # %.3.k W ( ( ( ( ( ( ( ( ( ( ( ( ( ( ",
"( ( ( ( ( ( ( ( ( ( ( ( ( ( ( ( ( ( ( ( @ V Z Z Z Z X x.S.D.D.D.D.D.D.D.D.D.C.4 V Z Z Z Z X :.k W ( ( ( ( ( ( ( ( ( ( ( ( ( ( ( ",
"( ( ( ( ] ] ] ] ( ( ( ( ( ( ( ( ( ( ( ( @ V Z Z Z o z.S.q.C.D.D.D.D.D.D.D.q.C.m.5 V Z Z Z X i W ( ( ( ( ( ( ( ] ] ] ( ( ( ( ( ( ",
"( ( ( ( ( ( ( ( ( ( ( ( ( ( ( ( ( ( ( < * C Z Z Z X b.D.9.C.D.Y.w.9.U.G.D.9.C.D.4 V Z Z Z b + E ( ( ( ( ( ( ( ( ( ( ( ( ( ( ( ( ",
"T T T T T T T T T T T T T T T T T T T O * C Z Z Z X b.D.9.c N.Y.0.3.U.G._ ,.C.D.4 V Z Z Z b . f T T T T T T T T T T T T T T T T ",
"T T T T T T T T T T T T T T T T T T % * b C Z Z Z X b.D.C.k J.T.v a K.T.l v.S.D.4 V Z Z Z b * # f T T T T T T T T T T T T T T T ",
"T T T T T T T T T T T T T T T T T % * b V Z Z Z Z X b.D.D.5.v P.l y K.| ;.C.D.D.4 V Z Z Z C b * # f T T T T T T T T T T T T T T ",
"e e e e e e e e e e e e e e e e @ * V C Z Z Z Z o $.V.D.D.C.3.v i y l ;.N.S.D.D.2., V Z Z Z C b * + q e e e e e e e e e e e e e ",
"e e e e e e e e e e e e e e e @ M C Z Z Z b C Z X :.C.D.D.D.C.3.,.,.,.N.S.D.D.D.9., V Z b C Z C C b + q e e e e e e e e e e e e ",
"e e -.-.-.-.-.-.-.} } } } 1 @ M Z Z Z Z Z C Z Z X :.C.D.D.D.D.C.C.C.C.S.D.D.D.D.9., V Z C Z Z Z Z C V $ $ ..-.-.-.-.-.-.-.-.e e ",
"e } } } } } } } } } } 1 @ M V Z Z b C Z Z Z Z Z X :.C.D.D.D.D.D.D.D.D.D.D.D.D.D.9., V Z Z Z Z Z b C Z V V $ @ [ } } } } } } e e ",
"( ( ( ( ( ( ( ( ( ( < M V Z Z Z Z C Z Z b C Z Z X :.C.D.D.D.D.D.D.D.D.D.D.D.D.D.9., V Z Z b C Z C Z Z Z Z V V # E ( ( ( ( ( e e ",
"( ( ( ( ( ( ( ( ] < M Z Z Z Z b C Z Z Z C Z Z Z X :.C.D.D.D.D.D.D.D.D.D.D.D.D.D.9.n C Z Z C Z Z Z Z b C Z Z Z V # E ( ( ( ( e e ",
"( ( ( ( ( ( ( ( ( E # X V Z b V Z Z Z b C Z Z Z b , m.D.D.D.D.Y.Y.Y.Y.G.D.D.D.D.w = C Z Z Z b C Z Z C b C Z o X g Q ( ( ( e e e ",
"T T T T T T T T T T f f # X = b C Z b b C Z Z Z b . b.D.D.D.D.w.0.0.0.C.D.D.D.D.4 * C Z Z Z b b C Z b b X X s f T T T T T e e e ",
"T T T T T T T T T T T T f f # . b b b b b b b b b . <.C.D.D.q.k a a a 3.C.D.D.q., * b b b b b b b b X . s f T T T T T T e e e e ",
"( ( ( ( ( ( ( ( ( ( ( ( ( ( E E # . . * b b b b b . :.9.C.D.c W W W W p N.D.q.5., * b b b b b X X . g E Q ( ( ( ( ( ( ( e e e e ",
"( ( ( ( ( ( ( ( ( ] ] ] ( ( ( ( E E E # . . . . . g p ,.9.9.a W ( ( ( u 3.9.5.k E # . . . . . g E E Q ( ( ( ( ( ( ( ( ( ( e e e ",
"T T ( ( ( ( ( ( ( ( ( ( ( ( ( ( ( ( ( E ~ ~ ~ ~ ~ ' u H.U.U.l W ( ( ( u H.U.U.l W E E E E E E Q ( ( ( ] ] ] ] ] ] ( ( ( ( e e e ",
"T T ( ( ( ( ( ( ( ( ( ( ( ( ( ( ( ( ( ( ( ( ( ( ( ( W z l l / ( ( ( ( W z l l / ( ( ( ( ( ( ( ( ( ( ( ( ( ( ( ( ( ( ( ( ( ( e e ",
"e e T T T T T T T T T T T T T T T T T T T T T T T T T Y Y Y T T T T T T Y Y Y T T T T T T T T T T T T T T T T T T T T T T T e e ",
"T e e e T T T T T T T T T T T T T T T T T T T T T T T T T T T T T T T T T T T T T T T T T T T T T T T T T T T T T T T T T T e e ",
"U U U U U U U U U T T T T T T T T T T T T T T T T T T T T T T T T T T T T T T T T T T T T T T T T T T T U U U U U U U U U U e e "
};
