/* XPM */
static char *result[] = {
/* columns rows colors chars-per-pixel */
"128 42 178 2 ",
"   c #070707",
".  c #070807",
"X  c #090A0A",
"o  c gray4",
"O  c #0B0C0C",
"+  c #0B0D0C",
"@  c #0C0C0C",
"#  c #0C0D0C",
"$  c #131313",
"%  c #121413",
"&  c #131413",
"*  c #121513",
"=  c #131513",
"-  c #131414",
";  c #131514",
":  c gray8",
">  c #141514",
",  c #141515",
"<  c #1B191A",
"1  c #1E1B1D",
"2  c #242022",
"3  c #272224",
"4  c #292326",
"5  c #2F272B",
"6  c #2F272C",
"7  c #191364",
"8  c #1A1364",
"9  c #1E1364",
"0  c #1F1364",
"q  c #191464",
"w  c #1A1464",
"e  c #1B1464",
"r  c #1A1564",
"t  c #1C1464",
"y  c #1D1464",
"u  c #1D1664",
"i  c #330E63",
"p  c #261163",
"a  c #241263",
"s  c #251263",
"d  c #261263",
"f  c #201364",
"g  c #211364",
"h  c #221264",
"j  c #221364",
"k  c #251764",
"l  c #281163",
"z  c #291163",
"x  c #2A1163",
"c  c #281263",
"v  c #2C1163",
"b  c #2E1063",
"n  c #2E1163",
"m  c #281463",
"M  c #2B1764",
"N  c #231C64",
"B  c #341163",
"V  c #371063",
"C  c #3B1163",
"Z  c #2D2964",
"A  c #2C2865",
"S  c #302C65",
"D  c #363365",
"F  c #75095F",
"G  c #7D0D5F",
"H  c #7E0D5F",
"J  c #7F165F",
"K  c #663E57",
"L  c #693958",
"P  c #6D395A",
"I  c #72355E",
"U  c #72365E",
"Y  c #713A5E",
"T  c #703F5E",
"R  c #420D62",
"E  c #470E62",
"W  c #4B0E62",
"Q  c #4C0C61",
"!  c #550D61",
"~  c #540F61",
"^  c #5B0F61",
"/  c #5C0E61",
"(  c #5E0F61",
")  c #451062",
"_  c #750D60",
"`  c #790B60",
"'  c #780C60",
"]  c #790C60",
"[  c #790E60",
"{  c #641162",
"}  c #691362",
"|  c #6F1662",
" . c #781160",
".. c #781E61",
"X. c #5F2E63",
"o. c #493E65",
"O. c #543864",
"+. c #6F2061",
"@. c #772761",
"#. c #7B2662",
"$. c #792B61",
"%. c #7D2A62",
"&. c #6C3963",
"*. c #773163",
"=. c #783462",
"-. c #7A3663",
";. c #743A63",
":. c #783C63",
">. c #7E3E63",
",. c #7A3A64",
"<. c #4B4A4B",
"1. c #53444C",
"2. c #54454D",
"3. c #57454F",
"4. c #55464E",
"5. c #56464E",
"6. c #56464F",
"7. c #524B4F",
"8. c #54484F",
"9. c #514E4F",
"0. c #4F504F",
"q. c #50504F",
"w. c #5C4853",
"e. c #5D4A54",
"r. c #5D4A55",
"t. c #5E4A55",
"y. c #5A4E55",
"u. c #5B4E55",
"i. c #5C4C55",
"p. c #555153",
"a. c #555756",
"s. c #565656",
"d. c #595155",
"f. c #5A5055",
"g. c #585255",
"h. c #5C5458",
"j. c #5F5D5D",
"k. c #5D5E5D",
"l. c #5D5F5D",
"z. c #634455",
"x. c #68425A",
"c. c #644C59",
"v. c #664F5C",
"b. c #68485A",
"n. c #69495B",
"m. c #6A485B",
"M. c #6A495B",
"N. c #6B495B",
"B. c #6B495C",
"V. c #62555C",
"C. c #62575D",
"Z. c #5E4D65",
"A. c #575766",
"S. c #5B5666",
"D. c #5F5967",
"F. c #774B64",
"G. c #6E5B65",
"H. c #735065",
"J. c #725665",
"K. c #725765",
"L. c #616167",
"P. c #6B6367",
"I. c #666866",
"U. c #676867",
"Y. c #666967",
"T. c #8B095F",
"R. c #820F60",
"E. c #821060",
"W. c #831060",
"Q. c #821160",
"!. c #831160",
"~. c #811260",
"^. c #851361",
"/. c #831660",
"(. c #841560",
"). c #851461",
"_. c #801C61",
"`. c None",
/* pixels */
"`.`.`.`.+ # # # + + + # # # # # # # + + + # # # @ # # + + + + # # # # # # # + + # # # # # # # # + + # # # # # # # + + + + # # # # # # + + + # # # # # # # + + + # # # # # # # + + + # # # # # @ @ @ @ # # # # # # # # + + + # # # # # # # + @ @ @ # # # `.`.`.`.",
"`.`.O < 3.t.t.t.e.e.e.r.t.t.t.t.t.t.e.e.r.r.t.f.s.u.t.r.e.e.r.r.r.t.t.t.t.t.e.e.r.r.t.t.t.t.t.t.e.e.r.r.t.t.t.t.t.r.e.e.r.r.t.t.t.t.t.r.e.e.r.r.t.t.t.t.t.e.e.e.r.t.t.t.t.t.t.e.e.r.r.r.t.t.t.g.a.a.s.i.t.r.t.t.t.t.t.e.e.e.r.t.t.t.t.t.t.e.y.a.d.t.t.w.3 # `.`.",
"`.X <.x.J E.Q.Q.Q.!.!.Q.Q.Q.Q.Q.Q.Q.Q.!.Q.Q.E.;.U.*.R.Q.!.!.Q.Q.Q.Q.Q.Q.Q.Q.!.!.Q.Q.Q.Q.Q.Q.Q.Q.Q.!.Q.Q.Q.Q.Q.Q.Q.Q.!.!.Q.Q.Q.Q.Q.Q.Q.Q.!.Q.Q.Q.Q.Q.Q.Q.Q.Q.!.!.Q.Q.Q.Q.Q.Q.Q.Q.!.!.Q.Q.Q.Q.Q.:.K.J.H._.W.Q.Q.Q.Q.Q.Q.!.!.!.Q.Q.Q.Q.Q.Q.Q.W.%.K.-.W.Q.~.P p.- `.",
"`.1 K | n s d d d d d d d d d d d d d d d s i O.I.o.M p d d d d d d d d d d d d d d d d d d d d d d d d d d d d d d d d d d d d d d d d d d d d d d d d d d d d d d d d d d d d d d d d d d d / H G _ B s d d d d d d d d d d d d d d d d a ) G ~ s d l { Y 4 `.",
". 1./.b w w w w w w w w w w w w w w w w w q R @.G.A.A 7 w w w w w w w w w w w w w w w w w w w w w w w w w w w w w w w w w w w w w w w w w w w w w w w w w w w w w w w w w w w w w w w w w w w 0 g g g e w w w w w w w w w w w w w w w w w w y g 9 w w w h +.c.& ",
". 6.).x w e e e e e e e e e e e e e e e e e t E X.S e e e e e e e e e e e e e e e e e e e e e e e e e e e e e e e e e e e e e e e e e e e e e e e e e e e e e e e e e e e e e e e e e e e e e e e e e e e e e e e e e e e e e e e e e e e e e e e e e r Z S.j.- ",
". 5.).x w e e e e e e e e e e e e e e e e e e t t e e e e e e e e e e e e e e e e e e e e e e e e e e e e e e e e e e e e e e e e e e e e e e e e e e e e e e e e e e e e e e e e e e e e e e e e e e e e e e e e e e e e e e e e e e e e e e e e e e C Z.Y.k.$ ",
". 5.).x w e e e e e e e e e e e e e e e e e e e e e e e e e e e e e e e e e e e e e e e e e e e e e e e e e e e e e e e e e e e e e e e e e e e e e e e e e e e e e e e e e e e e e e e e e e e e e e e e e e e e e e e e e e e e e e e e e e e e e e W $.>.V.& ",
". 5.).x w e e e e e e e e e e e e e e e e e e e e e e e e e e e e e e e e e e e e e e e e e e e e e e e e e e e e e e e e e e e e e e e e e e e e e e e e e e e e e e e e e e e e e e e e e e e e e e e e e e e e e e e e e e e e e e e e e e e e e e t Q T.n.* ",
". 5.).x w e e e e e e e e e e e e e e e e e e e e e e e e e e e e e e e e e e e e e e e e e e e e e e e e e e e e e e e e e e e e e e e e e e e e e e e e e e e e e e e e e e e e e e e e e e e e e e e e e e e e e e e e e e e e e e e e e e e e e e e 0 ] M.* ",
". 5.).x w e e e e e e e e e e e e e e e e e e e e e e e e e e e e e e e e e e e e e e e e e e e e e e e e e e e e e e e e e e e e e e e e e e e e e e e e e e e e e e e e e e e e e e e e e e e e e e e e e e e e e e e e e e e e e e e e e e e e e e e f ] M.* ",
". 6.).x w e e e e e e e e e e e e e e e e e e e e e e e e e e e e e e e e e e e e e e e e e e e e e e e e e e e e e e e e e e e e e e e e e e e e e e e e e e e e e e e e e e e e e e e e e e e e e e e e e e e e e e e e e e e e e e e e e e e e e e e f ] M.= ",
". 5.).x w e e e e e e e e e e e e e e e e e e e e e e e e e e e e e e e e e e e e e e e e e e e e e e e e e e e e e e e e e e e e e e e e e e e e e e e e e e e e e e e e e e e e e e e e e e e e e e e e e e e e e e e e e e e e e e e e e e e e e e e f ] M.; ",
". 5.).x w e e e e e e e e e e e e e e e e e e e e e e e e e e e e e e e e e e e e e e e e e e e e e e e e e e e e e e e e e e e e e e e e e e e e e e e e e e e e e e e e e e e e e e e e e e e e e e e e e e e e e e e e e e e e e e e e e e e e e e e f ] M.; ",
". 4.).x w e e e e e e e e e e e e e e e e e e e e e e e e e e e e e e e e e e e e e e e e e e e e e e e e e e e e e e e e e e e e e e e e e e e e e e e e e e e e e e e e e e e e e e e e e e e e e e e e e e e e e e e e e e e e e e e e e e e e e e e f ] M.; ",
". 4.).x w e e e e e e e e e e e e e e e e e e e e e e e e e e e e e e e e e e e e e e e e e e e e e e e e e e e e e e e e e e e e e e e e e e e e e e e e e e e e e e e e e e e e e e e e e e e e e e e e e e e e e e e e e e e e e e e e e e e e e e e f ] M.; ",
". 5.^.x w e e e e e e e e e e e e e e e e e e e e e e e e e e e e e e e e e e e e e e e e e e e e e e e e e e e e e e e e e e e e e e e e e e e e e e e e e e e e e e e e e e e e e e e e e e e e e e e e e e e e e e e e e e e e e e e e e e e e e e e f ] M.= ",
". 8.#.m w e e e e e e e e e e e e e e e e e e e e e e e e e e e e e e e e e e e e e e e e e e e e e e e e e e e e e e e e e e e e e e e e e e e e e e e e e e e e e e e e e e e e e e e e e e e e e e e e e e e e e e e e e e e e e e e e e e e e e e e f ] M.* ",
"  q.D.N 8 e e e e e e e e e e e e e e e e e e e e e e e e e e e e e e e e e e e e e e e e e e e e e e e e e e e e e e e e e e e e e e e e e e e e e e e e e e e e e e e e e e e e e e e e e e e e e e e e e e e e e e e e e e e e e e e e e e e e e e e f ] M.* ",
"  q.L.D u e e e e e e e e e e e e e e e e e e e e e e e e e e e e e e e e e e e e e e e e e e e e e e e e e e e e e e e e e e e e e e e e e e e e e e e e e e e e e e e e e e e e e e e e e e e e e e e e e e e e e e e e e e e e e e e e e e e e e e e f ] M.* ",
"  0.P.&.k w e e e e e e e e e e e e e e e e e e e e e e e e e e e e e e e e e e e e e e e e e e e e e e e e e e e e e e e e e e e e e e e e e e e e e e e e e e e e e e e e e e e e e e e e e e e e e e e e e e e e e e e e e e e e e e e e e e e e e e f ] M.= ",
". 7.,.^ g e e e e e e e e e e e e e e e e e e e e e e e e e e e e e e e e e e e e e e e e e e e e e e e e e e e e e e e e e e e e e e e e e e e e e e e e e e e e e e e e e e e e e e e e e e e e e e e e e e e e e e e e e e e e e e e e e e e e e e e f ] M.; ",
". 5.^.z w e e e e e e e e e e e e e e e e e e e e e e e e e e e e e e e e e e e e e e e e e e e e e e e e e e e e e e e e e e e e e e e e e e e e e e e e e e e e e e e e e e e e e e e e e e e e e e e e e e e e e e e e e e e e e e e e e e e e e e e f ] M.; ",
". 5.).x w e e e e e e e e e e e e e e e e e e e e e e e e e e e e e e e e e e e e e e e e e e e e e e e e e e e e e e e e e e e e e e e e e e e e e e e e e e e e e e e e e e e e e e e e e e e e e e e e e e e e e e e e e e e e e e e e e e e e e e e f ] M.; ",
". 4.).x w e e e e e e e e e e e e e e e e e e e e e e e e e e e e e e e e e e e e e e e e e e e e e e e e e e e e e e e e e e e e e e e e e e e e e e e e e e e e e e e e e e e e e e e e e e e e e e e e e e e e e e e e e e e e e e e e e e e e e e e f ] M.; ",
". 4.).x w e e e e e e e e e e e e e e e e e e e e e e e e e e e e e e e e e e e e e e e e e e e e e e e e e e e e e e e e e e e e e e e e e e e e e e e e e e e e e e e e e e e e e e e e e e e e e e e e e e e e e e e e e e e e e e e e e e e e e e e f ] M.; ",
". 5.).x w e e e e e e e e e e e e e e e e e e e e e e e e e e e e e e e e e e e e e e e e e e e e e e e e e e e e e e e e e e e e e e e e e e e e e e e e e e e e e e e e e e e e e e e e e e e e e e e e e e e e e e e e e e e e e e e e e e e e e e e f ] M.* ",
". 5.).x w e e e e e e e e e e e e e e e e e e e e e e e e e e e e e e e e e e e e e e e e e e e e e e e e e e e e e e e e e e e e e e e e e e e e e e e e e e e e e e e e e e e e e e e e e e e e e e e e e e e e e e e e e e e e e e e e e e e e e e e f ] M.* ",
". 5.).x w e e e e e e e e e e e e e e e e e e e e e e e e e e e e e e e e e e e e e e e e e e e e e e e e e e e e e e e e e e e e e e e e e e e e e e e e e e e e e e e e e e e e e e e e e e e e e e e e e e e e e e e e e e e e e e e e e e e e e e e f ] M.* ",
". 5.).x w e e e e e e e e e e e e e e e e e e e e e e e e e e e e e e e e e e e e e e e e e e e e e e e e e e e e e e e e e e e e e e e e e e e e e e e e e e e e e e e e e e e e e e e e e e e e e e e e e e e e e e e e e e e e e e e e e e e e e e e f ] M.* ",
". 5.).x w e e e e e e e e e e e e e e e e e e e e e e e e e e e e e e e e e e e e e e e e e e e e e e e e e e e e e e e e e e e e e e e e e e e e e e e e e e e e e e e e e e e e e e e e e e e e e e e e e e e e e e e e e e e e e e e e e e e e e e e f ] M.* ",
". 5.).x w e e e e e e e e e e e e e e e e e e e e e e e e e e e e e e e e e e e e e e e e e e e e e e e e e e e e e e e e e e e e e e e e e e e e e e e e e e e e e e e e e e e e e e e e e e e e e e e e e e e e e e e e e e e e e e e e e e e e e e e f ] M.; ",
". 5.).x w e e e e e e e e e e e e e e e e e e e e e e e e e e e e e e e e e e e e e e e e e e e e e e e e e e e e e e e e e e e e e e e e e e e e e e e e e e e e e e e e e e e e e e e e e e e e e e e e e e e e e e e e e e e e e e e e e e e e e e e f ] M.; ",
". 5.).x w e e e e e e e e e e e e e e e e e e e e e e e e e e e e e e e e e e e e e e e e e e e e e e e e e e e e e e e e e e e e e e e e e e e e e e e e e e e e e e e e e e e e e e e e e e e e e e e e e e e e e e e e e e e e e e e e e e e e e e e f ] M.; ",
". 4.).x w e e e e e e e e e e e e e e e e e e e e e e e e e e e e e e e e e e e e e e e e e e e e e e e e e e e e e e e e e e e e e e e e e e e e e e e e e e e e e e e e e e e e e e e e e e e e e e e e e e e e e e e e e e e e e e e e e e e e e e e f ] M.; ",
". 4.).x w e e e e e e e e e e e e e e e e e e e e e e e e e e e e e e e e e e e e e e e e e e e e e e e e e e e e e e e e e e e e e e e e e e e e e e e e e e e e e e e e e e e e e e e e e e e e e e e e e e e e e e e e e e e e e e e e e e e e e e e f ] M.; ",
". 6.).x w e e e e e e e e e e e e e e e e e e e e e e e e e e e e e e e e e e e e e e e e e e e e e e e e e e e e e e e e e e e e e e e e e e e e e e e e e e e e e e e e e e e e e e e e e e e e e e e e e e e e e e e e e e e e e e e e e e e e e e e f ] M.* ",
". 2.(.v w e e e e e e e e e e e e e e e e e e e e e e e e e e e e e e e e e e e e e e e e e e e e e e e e e e e e e e e e e e e e e e e e e e e e e e t 9 y e e e e e e e e e e e e e e e e e e e e e e e e e e e e e e e e e e e e e e e e e e e e e e j [ b.* ",
"`.2 L } c 0 f f f f f f f f f f f f f f f f f f f f f f f f f f f f f f f f f f f f f f f f f f f f f f f f f f f f f f f f f f f f f f f f f f f f 9 V F ! 0 f f f f f f f f f f f f f f f f f f f f f f f f f f f f f f f f f f f f f f f f f f f f j ( I 6 `.",
"`.o 9.T  .] ] ] ' ' ' ] ] ] ] ] ] ] ' ' ] ] ] ] ] ] ] ] ' ' ] ] ] ] ] ] ] ] ' ' ] ] ] ] ] ] ] ] ' ' ] ] ] ] ] ] ] ] ' ' ] ] ] ] ] ] ] ] ' ' ] ] ] ] ` ..F.=.' ' ] ] ] ] ] ] ] ' ' ' ] ] ] ] ] ] ] ' ' ] ] ] ] ] ] ] ] ' ' ' ] ] ] ] ] ] ] ' ' ] ] ] ] [ U h.> `.",
"`.`.: 2 z.B.M.M.N.B.B.M.M.M.M.M.M.M.M.B.M.M.M.M.M.M.M.M.B.B.N.M.M.M.M.M.M.M.B.B.M.M.M.M.M.M.M.M.N.B.M.M.M.M.M.M.M.M.B.B.M.M.M.M.M.M.M.M.B.N.M.M.M.M.m.v.l.C.B.B.M.M.M.M.M.M.M.M.B.B.M.M.M.M.M.M.M.B.B.N.M.M.M.M.M.M.M.B.B.N.M.M.M.M.M.M.M.N.B.M.M.M.M.b.5 , `.`.",
"`.`.`.`.% = ; ; ; ; ; ; ; = = ; ; ; ; ; ; ; ; ; = = ; ; ; ; ; ; ; ; = ; ; ; ; ; ; ; ; = = ; ; ; ; ; ; ; ; = ; ; ; ; ; ; ; ; ; = = ; ; ; ; ; ; ; ; = = - $ - ; ; ; ; = = ; ; ; ; ; ; ; ; ; = = ; ; ; ; ; ; ; ; = ; ; ; ; ; ; ; ; = = ; ; ; ; ; ; ; ; = * `.`.`.`."
};
